<?xml version="1.0" encoding="UTF-8" standalone="no"?>
<!DOCTYPE svg PUBLIC "-//W3C//DTD SVG 1.1//EN"
 "http://www.w3.org/Graphics/SVG/1.1/DTD/svg11.dtd">
<!-- Generated by graphviz version 2.40.1 (20161225.0304)
 -->
<!-- Title: packages Pages: 1 -->
<svg width="1475pt" height="1054pt"
 viewBox="0.00 0.00 1474.58 1054.35" xmlns="http://www.w3.org/2000/svg" xmlns:xlink="http://www.w3.org/1999/xlink">
<g id="graph0" class="graph" transform="scale(1 1) rotate(0) translate(4 1050.3479)">
<title>packages</title>
<polygon fill="#ffffff" stroke="transparent" points="-4,4 -4,-1050.3479 1470.5774,-1050.3479 1470.5774,4 -4,4"/>
<g id="clust1" class="cluster">
<title>cluster_guzzlehttp</title>
<g id="a_clust1"><a xlink:href="https://packagist.org/packages/guzzlehttp/" xlink:title="guzzlehttp">
<polygon fill="none" stroke="#000000" points="160.49,-72.3479 160.49,-200.3479 388.4667,-200.3479 388.4667,-72.3479 160.49,-72.3479"/>
<text text-anchor="middle" x="274.4783" y="-185.1479" font-family="Times,serif" font-size="14.00" fill="#000000">guzzlehttp</text>
</a>
</g>
</g>
<g id="clust2" class="cluster">
<title>cluster_innmind</title>
<g id="a_clust2"><a xlink:href="https://packagist.org/packages/innmind/" xlink:title="innmind">
<polygon fill="none" stroke="#000000" points="8,-628.3479 8,-1038.3479 761.2192,-1038.3479 761.2192,-628.3479 8,-628.3479"/>
<text text-anchor="middle" x="384.6096" y="-1023.1479" font-family="Times,serif" font-size="14.00" fill="#000000">innmind</text>
</a>
</g>
</g>
<g id="clust3" class="cluster">
<title>cluster_league</title>
<g id="a_clust3"><a xlink:href="https://packagist.org/packages/league/" xlink:title="league">
<polygon fill="none" stroke="#000000" points="651.623,-412.3479 651.623,-620.3479 1309.041,-620.3479 1309.041,-412.3479 651.623,-412.3479"/>
<text text-anchor="middle" x="980.332" y="-605.1479" font-family="Times,serif" font-size="14.00" fill="#000000">league</text>
</a>
</g>
</g>
<g id="clust4" class="cluster">
<title>cluster_paragonie</title>
<g id="a_clust4"><a xlink:href="https://packagist.org/packages/paragonie/" xlink:title="paragonie">
<polygon fill="none" stroke="#000000" points="262.8554,-392.3479 262.8554,-466.3479 413.9996,-466.3479 413.9996,-392.3479 262.8554,-392.3479"/>
<text text-anchor="middle" x="338.4275" y="-451.1479" font-family="Times,serif" font-size="14.00" fill="#000000">paragonie</text>
</a>
</g>
</g>
<g id="clust5" class="cluster">
<title>cluster_psr</title>
<g id="a_clust5"><a xlink:href="https://packagist.org/packages/psr/" xlink:title="psr">
<polygon fill="none" stroke="#000000" points="1329.041,-372.3479 1329.041,-554.3479 1458.5774,-554.3479 1458.5774,-372.3479 1329.041,-372.3479"/>
<text text-anchor="middle" x="1393.8092" y="-539.1479" font-family="Times,serif" font-size="14.00" fill="#000000">psr</text>
</a>
</g>
</g>
<g id="clust6" class="cluster">
<title>cluster_ralouphie</title>
<g id="a_clust6"><a xlink:href="https://packagist.org/packages/ralouphie/" xlink:title="ralouphie">
<polygon fill="none" stroke="#000000" points="448.258,-72.3479 448.258,-146.3479 577.7684,-146.3479 577.7684,-72.3479 448.258,-72.3479"/>
<text text-anchor="middle" x="513.0132" y="-131.1479" font-family="Times,serif" font-size="14.00" fill="#000000">ralouphie</text>
</a>
</g>
</g>
<g id="clust7" class="cluster">
<title>cluster_ramsey</title>
<g id="a_clust7"><a xlink:href="https://packagist.org/packages/ramsey/" xlink:title="ramsey">
<polygon fill="none" stroke="#000000" points="166.6727,-392.3479 166.6727,-466.3479 236.6727,-466.3479 236.6727,-392.3479 166.6727,-392.3479"/>
<text text-anchor="middle" x="201.6727" y="-451.1479" font-family="Times,serif" font-size="14.00" fill="#000000">ramsey</text>
</a>
</g>
</g>
<g id="clust8" class="cluster">
<title>cluster_symfony</title>
<g id="a_clust8"><a xlink:href="https://packagist.org/packages/symfony/" xlink:title="symfony">
<polygon fill="none" stroke="#000000" points="459.0403,-222.3479 459.0403,-404.3479 752.38,-404.3479 752.38,-222.3479 459.0403,-222.3479"/>
<text text-anchor="middle" x="605.7101" y="-389.1479" font-family="Times,serif" font-size="14.00" fill="#000000">symfony</text>
</a>
</g>
</g>
<!-- guzzlehttp__guzzle -->
<g id="node1" class="node">
<title>guzzlehttp__guzzle</title>
<g id="a_node1"><a xlink:href="https://packagist.org/packages/guzzlehttp/guzzle" xlink:title="guzzle">
<ellipse fill="none" stroke="#e5a30c" cx="201.6727" cy="-152.3479" rx="33.3665" ry="18"/>
<text text-anchor="middle" x="201.6727" y="-148.1479" font-family="Times,serif" font-size="14.00" fill="#000000">guzzle</text>
</a>
</g>
</g>
<!-- guzzlehttp__promises -->
<g id="node2" class="node">
<title>guzzlehttp__promises</title>
<g id="a_node2"><a xlink:href="https://packagist.org/packages/guzzlehttp/promises" xlink:title="promises">
<ellipse fill="none" stroke="#e89948" cx="338.4275" cy="-98.3479" rx="42.0784" ry="18"/>
<text text-anchor="middle" x="338.4275" y="-94.1479" font-family="Times,serif" font-size="14.00" fill="#000000">promises</text>
</a>
</g>
</g>
<!-- guzzlehttp__guzzle&#45;&gt;guzzlehttp__promises -->
<g id="edge1" class="edge">
<title>guzzlehttp__guzzle&#45;&gt;guzzlehttp__promises</title>
<path fill="none" stroke="#e5a30c" d="M227.0986,-140.6341C238.0276,-135.7277 250.9922,-130.0776 262.8554,-125.3479 273.3585,-121.1605 284.7972,-116.9146 295.5228,-113.0681"/>
<polygon fill="#e5a30c" stroke="#e5a30c" points="296.8712,-116.3035 305.1251,-109.661 294.5303,-109.7065 296.8712,-116.3035"/>
</g>
<!-- guzzlehttp__psr7 -->
<g id="node3" class="node">
<title>guzzlehttp__psr7</title>
<g id="a_node3"><a xlink:href="https://packagist.org/packages/guzzlehttp/psr7" xlink:title="psr7">
<ellipse fill="none" stroke="#adcacd" cx="338.4275" cy="-152.3479" rx="27" ry="18"/>
<text text-anchor="middle" x="338.4275" y="-148.1479" font-family="Times,serif" font-size="14.00" fill="#000000">psr7</text>
</a>
</g>
</g>
<!-- guzzlehttp__guzzle&#45;&gt;guzzlehttp__psr7 -->
<g id="edge2" class="edge">
<title>guzzlehttp__guzzle&#45;&gt;guzzlehttp__psr7</title>
<path fill="none" stroke="#e5a30c" d="M235.1267,-152.3479C255.1498,-152.3479 280.6345,-152.3479 301.2808,-152.3479"/>
<polygon fill="#e5a30c" stroke="#e5a30c" points="301.2815,-155.848 311.2815,-152.3479 301.2814,-148.848 301.2815,-155.848"/>
</g>
<!-- psr__http_message -->
<g id="node26" class="node">
<title>psr__http_message</title>
<g id="a_node26"><a xlink:href="https://packagist.org/packages/psr/http-message" xlink:title="http&#45;message">
<ellipse fill="none" stroke="#8da3f1" cx="1393.8092" cy="-398.3479" rx="56.5373" ry="18"/>
<text text-anchor="middle" x="1393.8092" y="-394.1479" font-family="Times,serif" font-size="14.00" fill="#000000">http&#45;message</text>
</a>
</g>
</g>
<!-- guzzlehttp__psr7&#45;&gt;psr__http_message -->
<g id="edge3" class="edge">
<title>guzzlehttp__psr7&#45;&gt;psr__http_message</title>
<path fill="none" stroke="#adcacd" d="M365.5055,-153.9167C424.0628,-157.1694 566.8597,-164.3479 686.623,-164.3479 686.623,-164.3479 686.623,-164.3479 1036.7961,-164.3479 1187.5565,-164.3479 1324.1573,-312.1133 1373.9008,-372.7992"/>
<polygon fill="#adcacd" stroke="#adcacd" points="1371.3274,-375.1832 1380.3358,-380.7599 1376.7712,-370.7826 1371.3274,-375.1832"/>
</g>
<!-- ralouphie__getallheaders -->
<g id="node29" class="node">
<title>ralouphie__getallheaders</title>
<g id="a_node29"><a xlink:href="https://packagist.org/packages/ralouphie/getallheaders" xlink:title="getallheaders">
<ellipse fill="none" stroke="#373d23" cx="513.0132" cy="-98.3479" rx="56.5115" ry="18"/>
<text text-anchor="middle" x="513.0132" y="-94.1479" font-family="Times,serif" font-size="14.00" fill="#000000">getallheaders</text>
</a>
</g>
</g>
<!-- guzzlehttp__psr7&#45;&gt;ralouphie__getallheaders -->
<g id="edge4" class="edge">
<title>guzzlehttp__psr7&#45;&gt;ralouphie__getallheaders</title>
<path fill="none" stroke="#adcacd" d="M363.0711,-144.7255C388.7959,-136.7687 429.8629,-124.0666 462.5193,-113.9658"/>
<polygon fill="#adcacd" stroke="#adcacd" points="463.8385,-117.2215 472.3577,-110.9228 461.77,-110.5341 463.8385,-117.2215"/>
</g>
<!-- innmind__cli -->
<g id="node4" class="node">
<title>innmind__cli</title>
<g id="a_node4"><a xlink:href="https://packagist.org/packages/innmind/cli" xlink:title="cli">
<ellipse fill="none" stroke="#87dfa2" cx="338.4275" cy="-879.3479" rx="27" ry="18"/>
<text text-anchor="middle" x="338.4275" y="-875.1479" font-family="Times,serif" font-size="14.00" fill="#000000">cli</text>
</a>
</g>
</g>
<!-- innmind__immutable -->
<g id="node10" class="node">
<title>innmind__immutable</title>
<g id="a_node10"><a xlink:href="https://packagist.org/packages/innmind/immutable" xlink:title="immutable">
<ellipse fill="none" stroke="#a7e599" cx="686.623" cy="-766.3479" rx="47.8582" ry="18"/>
<text text-anchor="middle" x="686.623" y="-762.1479" font-family="Times,serif" font-size="14.00" fill="#000000">immutable</text>
</a>
</g>
</g>
<!-- innmind__cli&#45;&gt;innmind__immutable -->
<g id="edge5" class="edge">
<title>innmind__cli&#45;&gt;innmind__immutable</title>
<path fill="none" stroke="#87dfa2" d="M365.4181,-880.6939C420.8502,-883.0643 545.5444,-886.2582 584.0268,-869.3479 620.819,-853.1803 651.5334,-817.2782 669.4972,-792.445"/>
<polygon fill="#87dfa2" stroke="#87dfa2" points="672.4237,-794.3679 675.3085,-784.1733 666.6959,-790.3438 672.4237,-794.3679"/>
</g>
<!-- innmind__operating_system -->
<g id="node12" class="node">
<title>innmind__operating_system</title>
<g id="a_node12"><a xlink:href="https://packagist.org/packages/innmind/operating-system" xlink:title="operating&#45;system">
<ellipse fill="none" stroke="#bb6188" cx="513.0132" cy="-916.3479" rx="71.0272" ry="18"/>
<text text-anchor="middle" x="513.0132" y="-912.1479" font-family="Times,serif" font-size="14.00" fill="#000000">operating&#45;system</text>
</a>
</g>
</g>
<!-- innmind__cli&#45;&gt;innmind__operating_system -->
<g id="edge6" class="edge">
<title>innmind__cli&#45;&gt;innmind__operating_system</title>
<path fill="none" stroke="#87dfa2" d="M364.1882,-884.8074C386.2486,-889.4826 418.9765,-896.4187 448.1283,-902.5968"/>
<polygon fill="#87dfa2" stroke="#87dfa2" points="447.7588,-906.0962 458.2672,-904.7455 449.2101,-899.2483 447.7588,-906.0962"/>
</g>
<!-- innmind__stream -->
<g id="node14" class="node">
<title>innmind__stream</title>
<g id="a_node14"><a xlink:href="https://packagist.org/packages/innmind/stream" xlink:title="stream">
<ellipse fill="none" stroke="#5eb3ec" cx="513.0132" cy="-842.3479" rx="33.8596" ry="18"/>
<text text-anchor="middle" x="513.0132" y="-838.1479" font-family="Times,serif" font-size="14.00" fill="#000000">stream</text>
</a>
</g>
</g>
<!-- innmind__cli&#45;&gt;innmind__stream -->
<g id="edge7" class="edge">
<title>innmind__cli&#45;&gt;innmind__stream</title>
<path fill="none" stroke="#87dfa2" d="M364.1882,-873.8884C392.4688,-867.8949 438.2806,-858.186 471.6152,-851.1214"/>
<polygon fill="#87dfa2" stroke="#87dfa2" points="472.4695,-854.5181 481.5266,-849.0209 471.0182,-847.6702 472.4695,-854.5181"/>
</g>
<!-- innmind__time_warp -->
<g id="node16" class="node">
<title>innmind__time_warp</title>
<g id="a_node16"><a xlink:href="https://packagist.org/packages/innmind/time-warp" xlink:title="time&#45;warp">
<ellipse fill="none" stroke="#e567f2" cx="513.0132" cy="-970.3479" rx="46.3959" ry="18"/>
<text text-anchor="middle" x="513.0132" y="-966.1479" font-family="Times,serif" font-size="14.00" fill="#000000">time&#45;warp</text>
</a>
</g>
</g>
<!-- innmind__cli&#45;&gt;innmind__time_warp -->
<g id="edge8" class="edge">
<title>innmind__cli&#45;&gt;innmind__time_warp</title>
<path fill="none" stroke="#87dfa2" d="M357.27,-892.5135C377.5621,-906.324 411.1031,-928.1012 441.9996,-943.3479 450.3384,-947.4628 459.47,-951.359 468.3253,-954.8449"/>
<polygon fill="#87dfa2" stroke="#87dfa2" points="467.1847,-958.1558 477.7753,-958.4573 469.6842,-951.6173 467.1847,-958.1558"/>
</g>
<!-- innmind__url -->
<g id="node17" class="node">
<title>innmind__url</title>
<g id="a_node17"><a xlink:href="https://packagist.org/packages/innmind/url" xlink:title="url">
<ellipse fill="none" stroke="#085cd3" cx="513.0132" cy="-748.3479" rx="27" ry="18"/>
<text text-anchor="middle" x="513.0132" y="-744.1479" font-family="Times,serif" font-size="14.00" fill="#000000">url</text>
</a>
</g>
</g>
<!-- innmind__cli&#45;&gt;innmind__url -->
<g id="edge9" class="edge">
<title>innmind__cli&#45;&gt;innmind__url</title>
<path fill="none" stroke="#87dfa2" d="M359.1663,-867.568C374.658,-858.5039 396.1464,-845.364 413.9996,-832.3479 441.0559,-812.6222 470.0482,-787.5082 489.6213,-769.8993"/>
<polygon fill="#87dfa2" stroke="#87dfa2" points="492.0849,-772.3902 497.1455,-763.0821 487.3848,-767.2028 492.0849,-772.3902"/>
</g>
<!-- innmind__colour -->
<g id="node5" class="node">
<title>innmind__colour</title>
<g id="a_node5"><a xlink:href="https://packagist.org/packages/innmind/colour" xlink:title="colour">
<ellipse fill="none" stroke="#356a4c" cx="513.0132" cy="-694.3479" rx="32.8994" ry="18"/>
<text text-anchor="middle" x="513.0132" y="-690.1479" font-family="Times,serif" font-size="14.00" fill="#000000">colour</text>
</a>
</g>
</g>
<!-- innmind__colour&#45;&gt;innmind__immutable -->
<g id="edge16" class="edge">
<title>innmind__colour&#45;&gt;innmind__immutable</title>
<path fill="none" stroke="#356a4c" d="M540.4533,-704.4157C553.6832,-709.3627 569.7438,-715.5045 584.0268,-721.3479 604.8166,-729.8532 627.7286,-739.8428 646.617,-748.2464"/>
<polygon fill="#356a4c" stroke="#356a4c" points="645.2583,-751.4728 655.8164,-752.3552 648.113,-745.0813 645.2583,-751.4728"/>
</g>
<!-- innmind__filesystem -->
<g id="node6" class="node">
<title>innmind__filesystem</title>
<g id="a_node6"><a xlink:href="https://packagist.org/packages/innmind/filesystem" xlink:title="filesystem">
<ellipse fill="none" stroke="#a45b8d" cx="338.4275" cy="-654.3479" rx="45.9459" ry="18"/>
<text text-anchor="middle" x="338.4275" y="-650.1479" font-family="Times,serif" font-size="14.00" fill="#000000">filesystem</text>
</a>
</g>
</g>
<!-- innmind__filesystem&#45;&gt;innmind__immutable -->
<g id="edge17" class="edge">
<title>innmind__filesystem&#45;&gt;innmind__immutable</title>
<path fill="none" stroke="#a45b8d" d="M375.8038,-643.734C425.7633,-631.6478 515.9116,-617.31 584.0268,-648.3479 625.0415,-667.0369 656.0102,-711.1183 672.7118,-739.794"/>
<polygon fill="#a45b8d" stroke="#a45b8d" points="669.667,-741.5201 677.6277,-748.5113 675.7643,-738.0816 669.667,-741.5201"/>
</g>
<!-- innmind__filesystem&#45;&gt;innmind__stream -->
<g id="edge18" class="edge">
<title>innmind__filesystem&#45;&gt;innmind__stream</title>
<path fill="none" stroke="#a45b8d" d="M380.0961,-662.2792C392.4129,-666.441 404.9941,-672.7623 413.9996,-682.3479 443.5559,-713.808 419.3102,-738.626 441.9996,-775.3479 452.9477,-793.067 469.7477,-809.2129 484.2591,-821.2132"/>
<polygon fill="#a45b8d" stroke="#a45b8d" points="482.48,-824.2718 492.4771,-827.7803 486.85,-818.8033 482.48,-824.2718"/>
</g>
<!-- symfony__filesystem -->
<g id="node31" class="node">
<title>symfony__filesystem</title>
<g id="a_node31"><a xlink:href="https://packagist.org/packages/symfony/filesystem" xlink:title="filesystem">
<ellipse fill="none" stroke="#1a4d29" cx="513.0132" cy="-302.3479" rx="45.9459" ry="18"/>
<text text-anchor="middle" x="513.0132" y="-298.1479" font-family="Times,serif" font-size="14.00" fill="#000000">filesystem</text>
</a>
</g>
</g>
<!-- innmind__filesystem&#45;&gt;symfony__filesystem -->
<g id="edge19" class="edge">
<title>innmind__filesystem&#45;&gt;symfony__filesystem</title>
<path fill="none" stroke="#a45b8d" d="M347.1294,-636.4905C362.6038,-604.0946 395.0566,-533.1682 413.9996,-470.3479 432.4449,-409.1781 400.7549,-378.1418 441.9996,-329.3479 447.328,-323.0442 454.2947,-318.209 461.7803,-314.5011"/>
<polygon fill="#a45b8d" stroke="#a45b8d" points="463.626,-317.5193 471.4555,-310.3814 460.8836,-311.0788 463.626,-317.5193"/>
</g>
<!-- symfony__finder -->
<g id="node32" class="node">
<title>symfony__finder</title>
<g id="a_node32"><a xlink:href="https://packagist.org/packages/symfony/finder" xlink:title="finder">
<ellipse fill="none" stroke="#952a8a" cx="513.0132" cy="-248.3479" rx="30.9793" ry="18"/>
<text text-anchor="middle" x="513.0132" y="-244.1479" font-family="Times,serif" font-size="14.00" fill="#000000">finder</text>
</a>
</g>
</g>
<!-- innmind__filesystem&#45;&gt;symfony__finder -->
<g id="edge20" class="edge">
<title>innmind__filesystem&#45;&gt;symfony__finder</title>
<path fill="none" stroke="#a45b8d" d="M347.4653,-636.5869C363.4723,-604.3439 396.741,-533.6517 413.9996,-470.3479 437.0295,-385.8754 387.2836,-343.7009 441.9996,-275.3479 449.7915,-265.614 461.512,-259.3872 473.1971,-255.4048"/>
<polygon fill="#a45b8d" stroke="#a45b8d" points="474.3033,-258.7279 482.9174,-252.5596 472.3368,-252.0098 474.3033,-258.7279"/>
</g>
<!-- innmind__graphviz -->
<g id="node7" class="node">
<title>innmind__graphviz</title>
<g id="a_node7"><a xlink:href="https://packagist.org/packages/innmind/graphviz" xlink:title="graphviz">
<ellipse fill="none" stroke="#39df6f" cx="338.4275" cy="-709.3479" rx="41.092" ry="18"/>
<text text-anchor="middle" x="338.4275" y="-705.1479" font-family="Times,serif" font-size="14.00" fill="#000000">graphviz</text>
</a>
</g>
</g>
<!-- innmind__graphviz&#45;&gt;innmind__colour -->
<g id="edge22" class="edge">
<title>innmind__graphviz&#45;&gt;innmind__colour</title>
<path fill="none" stroke="#39df6f" d="M378.9198,-705.8689C406.3411,-703.5129 442.5101,-700.4053 470.3731,-698.0114"/>
<polygon fill="#39df6f" stroke="#39df6f" points="470.946,-701.4752 480.6096,-697.1319 470.3467,-694.5009 470.946,-701.4752"/>
</g>
<!-- innmind__graphviz&#45;&gt;innmind__immutable -->
<g id="edge23" class="edge">
<title>innmind__graphviz&#45;&gt;innmind__immutable</title>
<path fill="none" stroke="#39df6f" d="M371.0971,-698.1223C384.52,-693.2836 400.1363,-687.3607 413.9996,-681.3479 426.764,-675.8116 428.4585,-670.5445 441.9996,-667.3479 503.4342,-652.8451 525.4955,-643.7127 584.0268,-667.3479 620.2079,-681.9579 650.7329,-716.1145 668.8482,-740.2047"/>
<polygon fill="#39df6f" stroke="#39df6f" points="666.2283,-742.5522 674.9483,-748.5698 671.8842,-738.4277 666.2283,-742.5522"/>
</g>
<!-- innmind__graphviz&#45;&gt;innmind__stream -->
<g id="edge24" class="edge">
<title>innmind__graphviz&#45;&gt;innmind__stream</title>
<path fill="none" stroke="#39df6f" d="M359.1404,-725.127C390.5322,-749.0414 450.2068,-794.5017 485.3028,-821.238"/>
<polygon fill="#39df6f" stroke="#39df6f" points="483.588,-824.3316 493.6637,-827.6074 487.83,-818.7633 483.588,-824.3316"/>
</g>
<!-- innmind__graphviz&#45;&gt;innmind__url -->
<g id="edge25" class="edge">
<title>innmind__graphviz&#45;&gt;innmind__url</title>
<path fill="none" stroke="#39df6f" d="M375.0264,-717.5236C405.0792,-724.2369 447.3997,-733.6907 477.2281,-740.354"/>
<polygon fill="#39df6f" stroke="#39df6f" points="476.6947,-743.821 487.2173,-742.5854 478.2209,-736.9894 476.6947,-743.821"/>
</g>
<!-- innmind__http -->
<g id="node8" class="node">
<title>innmind__http</title>
<g id="a_node8"><a xlink:href="https://packagist.org/packages/innmind/http" xlink:title="http">
<ellipse fill="none" stroke="#324178" cx="201.6727" cy="-758.3479" rx="27" ry="18"/>
<text text-anchor="middle" x="201.6727" y="-754.1479" font-family="Times,serif" font-size="14.00" fill="#000000">http</text>
</a>
</g>
</g>
<!-- innmind__http&#45;&gt;innmind__filesystem -->
<g id="edge26" class="edge">
<title>innmind__http&#45;&gt;innmind__filesystem</title>
<path fill="none" stroke="#324178" d="M211.5519,-741.2997C222.2291,-724.2324 240.722,-698.2801 262.8554,-682.3479 271.0316,-676.4625 280.5865,-671.6728 290.0979,-667.828"/>
<polygon fill="#324178" stroke="#324178" points="291.4039,-671.0764 299.5421,-664.2926 288.9497,-664.5207 291.4039,-671.0764"/>
</g>
<!-- innmind__http&#45;&gt;innmind__immutable -->
<g id="edge27" class="edge">
<title>innmind__http&#45;&gt;innmind__immutable</title>
<path fill="none" stroke="#324178" d="M228.5587,-761.1736C290.9838,-767.3778 450.5971,-781.1891 584.0268,-775.3479 599.0486,-774.6903 615.2721,-773.4935 630.2869,-772.1828"/>
<polygon fill="#324178" stroke="#324178" points="630.8151,-775.6494 640.459,-771.2625 630.1843,-768.6779 630.8151,-775.6494"/>
</g>
<!-- innmind__http&#45;&gt;innmind__stream -->
<g id="edge28" class="edge">
<title>innmind__http&#45;&gt;innmind__stream</title>
<path fill="none" stroke="#324178" d="M210.2071,-775.4482C220.1386,-793.256 238.3582,-820.2125 262.8554,-832.3479 297.8325,-849.6747 406.8678,-847.611 468.8258,-844.8365"/>
<polygon fill="#324178" stroke="#324178" points="469.2592,-848.32 479.0827,-844.3515 468.9285,-841.3278 469.2592,-848.32"/>
</g>
<!-- innmind__time_continuum -->
<g id="node15" class="node">
<title>innmind__time_continuum</title>
<g id="a_node15"><a xlink:href="https://packagist.org/packages/innmind/time-continuum" xlink:title="time&#45;continuum">
<ellipse fill="none" stroke="#dfbeb0" cx="686.623" cy="-943.3479" rx="66.6925" ry="18"/>
<text text-anchor="middle" x="686.623" y="-939.1479" font-family="Times,serif" font-size="14.00" fill="#000000">time&#45;continuum</text>
</a>
</g>
</g>
<!-- innmind__http&#45;&gt;innmind__time_continuum -->
<g id="edge29" class="edge">
<title>innmind__http&#45;&gt;innmind__time_continuum</title>
<path fill="none" stroke="#324178" d="M204.917,-776.4886C211.1789,-806.8015 227.5527,-868.1782 262.8554,-906.3479 323.4921,-971.9088 355.1511,-976.5541 441.9996,-997.3479 503.3878,-1012.0458 522.7467,-1012.4901 584.0268,-997.3479 609.106,-991.1508 634.8257,-977.5949 654.2401,-965.6163"/>
<polygon fill="#324178" stroke="#324178" points="656.1217,-968.5675 662.6916,-960.2557 652.3723,-962.6563 656.1217,-968.5675"/>
</g>
<!-- innmind__http&#45;&gt;innmind__url -->
<g id="edge30" class="edge">
<title>innmind__http&#45;&gt;innmind__url</title>
<path fill="none" stroke="#324178" d="M228.7575,-757.4779C284.419,-755.6901 411.7689,-751.5998 475.3931,-749.5562"/>
<polygon fill="#324178" stroke="#324178" points="475.8869,-753.0423 485.7693,-749.2229 475.6621,-746.0459 475.8869,-753.0423"/>
</g>
<!-- innmind__http_transport -->
<g id="node9" class="node">
<title>innmind__http_transport</title>
<g id="a_node9"><a xlink:href="https://packagist.org/packages/innmind/http-transport" xlink:title="http&#45;transport">
<ellipse fill="none" stroke="#d9c72a" cx="74.245" cy="-708.3479" rx="58.491" ry="18"/>
<text text-anchor="middle" x="74.245" y="-704.1479" font-family="Times,serif" font-size="14.00" fill="#000000">http&#45;transport</text>
</a>
</g>
</g>
<!-- innmind__http_transport&#45;&gt;guzzlehttp__guzzle -->
<g id="edge31" class="edge">
<title>innmind__http_transport&#45;&gt;guzzlehttp__guzzle</title>
<path fill="none" stroke="#d9c72a" d="M115.8485,-695.7282C122.3097,-692.0547 128.2398,-687.3519 132.49,-681.3479 170.2809,-627.9623 151.7503,-453.1691 160.49,-388.3479 170.681,-312.7616 187.4037,-224.3668 196.0712,-180.299"/>
<polygon fill="#d9c72a" stroke="#d9c72a" points="199.5351,-180.8237 198.0427,-170.3345 192.6682,-179.465 199.5351,-180.8237"/>
</g>
<!-- innmind__http_transport&#45;&gt;innmind__http -->
<g id="edge32" class="edge">
<title>innmind__http_transport&#45;&gt;innmind__http</title>
<path fill="none" stroke="#d9c72a" d="M110.4198,-722.5421C128.7965,-729.7528 150.9581,-738.4485 168.8394,-745.4648"/>
<polygon fill="#d9c72a" stroke="#d9c72a" points="167.6945,-748.7753 178.282,-749.1698 170.2514,-742.2589 167.6945,-748.7753"/>
</g>
<!-- psr__log -->
<g id="node27" class="node">
<title>psr__log</title>
<g id="a_node27"><a xlink:href="https://packagist.org/packages/psr/log" xlink:title="log">
<ellipse fill="none" stroke="#e9a8b6" cx="1393.8092" cy="-452.3479" rx="27" ry="18"/>
<text text-anchor="middle" x="1393.8092" y="-448.1479" font-family="Times,serif" font-size="14.00" fill="#000000">log</text>
</a>
</g>
</g>
<!-- innmind__http_transport&#45;&gt;psr__log -->
<g id="edge33" class="edge">
<title>innmind__http_transport&#45;&gt;psr__log</title>
<path fill="none" stroke="#d9c72a" d="M116.389,-695.7309C122.7099,-692.0642 128.4522,-687.363 132.49,-681.3479 170.4909,-624.7376 111.1902,-115.4471 160.49,-68.3479 296.5976,61.6847 400.2946,-27.4059 584.0268,-68.3479 931.408,-145.7566 1009.6957,-215.8429 1309.041,-408.3479 1318.8533,-414.658 1319.0937,-419.2528 1329.041,-425.3479 1338.6446,-431.2323 1349.759,-436.388 1360.0405,-440.5738"/>
<polygon fill="#d9c72a" stroke="#d9c72a" points="1358.9777,-443.9159 1369.5663,-444.2819 1361.5171,-437.3927 1358.9777,-443.9159"/>
</g>
<!-- ramsey__uuid -->
<g id="node30" class="node">
<title>ramsey__uuid</title>
<g id="a_node30"><a xlink:href="https://packagist.org/packages/ramsey/uuid" xlink:title="uuid">
<ellipse fill="none" stroke="#44619b" cx="201.6727" cy="-418.3479" rx="27" ry="18"/>
<text text-anchor="middle" x="201.6727" y="-414.1479" font-family="Times,serif" font-size="14.00" fill="#000000">uuid</text>
</a>
</g>
</g>
<!-- innmind__http_transport&#45;&gt;ramsey__uuid -->
<g id="edge34" class="edge">
<title>innmind__http_transport&#45;&gt;ramsey__uuid</title>
<path fill="none" stroke="#d9c72a" d="M114.7714,-695.2912C121.4226,-691.6521 127.6965,-687.0739 132.49,-681.3479 162.6519,-645.3177 187.7351,-506.3177 197.4026,-446.2554"/>
<polygon fill="#d9c72a" stroke="#d9c72a" points="200.8671,-446.7543 198.975,-436.3298 193.9533,-445.659 200.8671,-446.7543"/>
</g>
<!-- innmind__json -->
<g id="node11" class="node">
<title>innmind__json</title>
<g id="a_node11"><a xlink:href="https://packagist.org/packages/innmind/json" xlink:title="json">
<ellipse fill="none" stroke="#cb2336" cx="74.245" cy="-654.3479" rx="27" ry="18"/>
<text text-anchor="middle" x="74.245" y="-650.1479" font-family="Times,serif" font-size="14.00" fill="#000000">json</text>
</a>
</g>
</g>
<!-- innmind__operating_system&#45;&gt;innmind__time_continuum -->
<g id="edge10" class="edge">
<title>innmind__operating_system&#45;&gt;innmind__time_continuum</title>
<path fill="none" stroke="#bb6188" d="M573.7335,-925.7912C588.2723,-928.0523 603.8874,-930.4808 618.7276,-932.7887"/>
<polygon fill="#bb6188" stroke="#bb6188" points="618.4358,-936.2853 628.8549,-934.3637 619.5116,-929.3685 618.4358,-936.2853"/>
</g>
<!-- innmind__server_control -->
<g id="node13" class="node">
<title>innmind__server_control</title>
<g id="a_node13"><a xlink:href="https://packagist.org/packages/innmind/server-control" xlink:title="server&#45;control">
<ellipse fill="none" stroke="#43d797" cx="338.4275" cy="-805.3479" rx="59.5636" ry="18"/>
<text text-anchor="middle" x="338.4275" y="-801.1479" font-family="Times,serif" font-size="14.00" fill="#000000">server&#45;control</text>
</a>
</g>
</g>
<!-- innmind__server_control&#45;&gt;innmind__immutable -->
<g id="edge37" class="edge">
<title>innmind__server_control&#45;&gt;innmind__immutable</title>
<path fill="none" stroke="#43d797" d="M398.0204,-804.5171C447.9368,-803.1502 520.9426,-799.5853 584.0268,-790.3479 601.8804,-787.7336 621.2077,-783.5707 638.2224,-779.4408"/>
<polygon fill="#43d797" stroke="#43d797" points="639.0837,-782.8333 647.9445,-777.0249 637.3955,-776.0399 639.0837,-782.8333"/>
</g>
<!-- innmind__server_control&#45;&gt;innmind__stream -->
<g id="edge38" class="edge">
<title>innmind__server_control&#45;&gt;innmind__stream</title>
<path fill="none" stroke="#43d797" d="M387.524,-815.7529C414.0281,-821.3699 446.3842,-828.2272 471.6026,-833.5717"/>
<polygon fill="#43d797" stroke="#43d797" points="471.0774,-837.0381 481.5857,-835.6875 472.5287,-830.1902 471.0774,-837.0381"/>
</g>
<!-- innmind__server_control&#45;&gt;innmind__url -->
<g id="edge39" class="edge">
<title>innmind__server_control&#45;&gt;innmind__url</title>
<path fill="none" stroke="#43d797" d="M378.9198,-792.1277C409.2859,-782.2135 450.3795,-768.797 479.0414,-759.4393"/>
<polygon fill="#43d797" stroke="#43d797" points="480.2031,-762.7419 488.623,-756.311 478.0305,-756.0875 480.2031,-762.7419"/>
</g>
<!-- innmind__server_control&#45;&gt;psr__log -->
<g id="edge40" class="edge">
<title>innmind__server_control&#45;&gt;psr__log</title>
<path fill="none" stroke="#43d797" d="M374.3418,-819.9031C388.7806,-827.5056 404.2794,-838.2184 413.9996,-852.3479 451.1998,-906.4228 394.8371,-951.7009 441.9996,-997.3479 521.1089,-1073.915 576.5284,-1036.3479 686.623,-1036.3479 686.623,-1036.3479 686.623,-1036.3479 1036.7961,-1036.3479 1256.2731,-1036.3479 1231.6234,-829.7174 1309.041,-624.3479 1331.9881,-563.4748 1289.3377,-530.8818 1329.041,-479.3479 1336.1565,-470.1121 1347.0037,-464.0083 1357.798,-459.9855"/>
<polygon fill="#43d797" stroke="#43d797" points="1359.1342,-463.2327 1367.5877,-456.846 1356.9965,-456.567 1359.1342,-463.2327"/>
</g>
<!-- symfony__process -->
<g id="node34" class="node">
<title>symfony__process</title>
<g id="a_node34"><a xlink:href="https://packagist.org/packages/symfony/process" xlink:title="process">
<ellipse fill="none" stroke="#9cadc5" cx="513.0132" cy="-356.3479" rx="36.7576" ry="18"/>
<text text-anchor="middle" x="513.0132" y="-352.1479" font-family="Times,serif" font-size="14.00" fill="#000000">process</text>
</a>
</g>
</g>
<!-- innmind__server_control&#45;&gt;symfony__process -->
<g id="edge41" class="edge">
<title>innmind__server_control&#45;&gt;symfony__process</title>
<path fill="none" stroke="#43d797" d="M363.0661,-788.8425C379.8496,-776.3417 401.2564,-757.7082 413.9996,-736.3479 440.2874,-692.2838 429.2059,-674.037 441.9996,-624.3479 464.6417,-536.4087 492.4783,-432.5352 505.5568,-383.9711"/>
<polygon fill="#43d797" stroke="#43d797" points="508.9666,-384.7687 508.1894,-374.2024 502.2078,-382.9471 508.9666,-384.7687"/>
</g>
<!-- innmind__stream&#45;&gt;innmind__immutable -->
<g id="edge11" class="edge">
<title>innmind__stream&#45;&gt;innmind__immutable</title>
<path fill="none" stroke="#5eb3ec" d="M539.3808,-830.8051C567.6986,-818.4086 613.0518,-798.5547 645.9475,-784.1541"/>
<polygon fill="#5eb3ec" stroke="#5eb3ec" points="647.5396,-787.2779 655.2967,-780.0614 644.7324,-780.8654 647.5396,-787.2779"/>
</g>
<!-- innmind__stream&#45;&gt;innmind__time_continuum -->
<g id="edge12" class="edge">
<title>innmind__stream&#45;&gt;innmind__time_continuum</title>
<path fill="none" stroke="#5eb3ec" d="M536.0672,-855.7599C565.0246,-872.6062 615.0765,-901.7247 649.4662,-921.7314"/>
<polygon fill="#5eb3ec" stroke="#5eb3ec" points="647.8804,-924.858 658.2842,-926.8614 651.4005,-918.8074 647.8804,-924.858"/>
</g>
<!-- innmind__time_warp&#45;&gt;innmind__time_continuum -->
<g id="edge13" class="edge">
<title>innmind__time_warp&#45;&gt;innmind__time_continuum</title>
<path fill="none" stroke="#e567f2" d="M556.3744,-963.6043C575.1901,-960.6781 597.6748,-957.1812 618.6243,-953.9231"/>
<polygon fill="#e567f2" stroke="#e567f2" points="619.4192,-957.3417 628.7625,-952.3464 618.3434,-950.4248 619.4192,-957.3417"/>
</g>
<!-- innmind__url&#45;&gt;innmind__immutable -->
<g id="edge14" class="edge">
<title>innmind__url&#45;&gt;innmind__immutable</title>
<path fill="none" stroke="#085cd3" d="M539.7593,-751.1209C563.7721,-753.6106 599.8119,-757.3472 630.1795,-760.4958"/>
<polygon fill="#085cd3" stroke="#085cd3" points="629.9274,-763.9883 640.2351,-761.5384 630.6494,-757.0256 629.9274,-763.9883"/>
</g>
<!-- league__uri -->
<g id="node18" class="node">
<title>league__uri</title>
<g id="a_node18"><a xlink:href="https://packagist.org/packages/league/uri" xlink:title="uri">
<ellipse fill="none" stroke="#ef36b1" cx="686.623" cy="-559.3479" rx="27" ry="18"/>
<text text-anchor="middle" x="686.623" y="-555.1479" font-family="Times,serif" font-size="14.00" fill="#000000">uri</text>
</a>
</g>
</g>
<!-- innmind__url&#45;&gt;league__uri -->
<g id="edge15" class="edge">
<title>innmind__url&#45;&gt;league__uri</title>
<path fill="none" stroke="#085cd3" d="M539.2563,-743.9244C554.1052,-740.1884 572.0434,-733.4269 584.0268,-721.3479 616.4132,-688.7029 594.9629,-662.9013 620.0268,-624.3479 631.0686,-607.3633 647.2709,-591.4228 660.9293,-579.5785"/>
<polygon fill="#085cd3" stroke="#085cd3" points="663.2256,-582.2204 668.619,-573.1011 658.7159,-576.8667 663.2256,-582.2204"/>
</g>
<!-- league__uri_components -->
<g id="node19" class="node">
<title>league__uri_components</title>
<g id="a_node19"><a xlink:href="https://packagist.org/packages/league/uri-components" xlink:title="uri&#45;components">
<ellipse fill="none" stroke="#de64b9" cx="1036.7961" cy="-552.3479" rx="65.7235" ry="18"/>
<text text-anchor="middle" x="1036.7961" y="-548.1479" font-family="Times,serif" font-size="14.00" fill="#000000">uri&#45;components</text>
</a>
</g>
</g>
<!-- league__uri&#45;&gt;league__uri_components -->
<g id="edge42" class="edge">
<title>league__uri&#45;&gt;league__uri_components</title>
<path fill="none" stroke="#ef36b1" d="M713.8091,-558.8044C766.2508,-557.7561 883.0619,-555.421 960.8788,-553.8655"/>
<polygon fill="#ef36b1" stroke="#ef36b1" points="961.1871,-557.3601 971.1151,-553.6609 961.0471,-550.3615 961.1871,-557.3601"/>
</g>
<!-- league__uri_hostname_parser -->
<g id="node20" class="node">
<title>league__uri_hostname_parser</title>
<g id="a_node20"><a xlink:href="https://packagist.org/packages/league/uri-hostname-parser" xlink:title="uri&#45;hostname&#45;parser">
<ellipse fill="none" stroke="#13807b" cx="1219.7244" cy="-552.3479" rx="81.1336" ry="18"/>
<text text-anchor="middle" x="1219.7244" y="-548.1479" font-family="Times,serif" font-size="14.00" fill="#000000">uri&#45;hostname&#45;parser</text>
</a>
</g>
</g>
<!-- league__uri&#45;&gt;league__uri_hostname_parser -->
<g id="edge43" class="edge">
<title>league__uri&#45;&gt;league__uri_hostname_parser</title>
<path fill="none" stroke="#ef36b1" d="M712.9874,-563.5478C778.8707,-573.4073 955.9224,-595.9869 1102.4078,-579.3479 1121.1559,-577.2183 1141.2713,-573.2328 1159.4577,-568.9652"/>
<polygon fill="#ef36b1" stroke="#ef36b1" points="1160.4446,-572.3275 1169.342,-566.5753 1158.7995,-565.5236 1160.4446,-572.3275"/>
</g>
<!-- league__uri_interfaces -->
<g id="node21" class="node">
<title>league__uri_interfaces</title>
<g id="a_node21"><a xlink:href="https://packagist.org/packages/league/uri-interfaces" xlink:title="uri&#45;interfaces">
<ellipse fill="none" stroke="#22ca7d" cx="1036.7961" cy="-444.3479" rx="57.4874" ry="18"/>
<text text-anchor="middle" x="1036.7961" y="-440.1479" font-family="Times,serif" font-size="14.00" fill="#000000">uri&#45;interfaces</text>
</a>
</g>
</g>
<!-- league__uri&#45;&gt;league__uri_interfaces -->
<g id="edge44" class="edge">
<title>league__uri&#45;&gt;league__uri_interfaces</title>
<path fill="none" stroke="#ef36b1" d="M694.277,-541.9566C708.2459,-512.6888 740.9511,-454.519 789.2192,-431.3479 852.4645,-400.9869 935.5376,-414.5576 987.5511,-428.4254"/>
<polygon fill="#ef36b1" stroke="#ef36b1" points="986.6357,-431.8035 997.207,-431.0987 988.5035,-425.0573 986.6357,-431.8035"/>
</g>
<!-- league__uri_manipulations -->
<g id="node22" class="node">
<title>league__uri_manipulations</title>
<g id="a_node22"><a xlink:href="https://packagist.org/packages/league/uri-manipulations" xlink:title="uri&#45;manipulations">
<ellipse fill="none" stroke="#a0cfe9" cx="862.2018" cy="-512.3479" rx="72.9653" ry="18"/>
<text text-anchor="middle" x="862.2018" y="-508.1479" font-family="Times,serif" font-size="14.00" fill="#000000">uri&#45;manipulations</text>
</a>
</g>
</g>
<!-- league__uri&#45;&gt;league__uri_manipulations -->
<g id="edge45" class="edge">
<title>league__uri&#45;&gt;league__uri_manipulations</title>
<path fill="none" stroke="#ef36b1" d="M711.7792,-552.6139C735.3944,-546.2925 771.6264,-536.5937 802.6137,-528.2988"/>
<polygon fill="#ef36b1" stroke="#ef36b1" points="803.7127,-531.6279 812.4675,-525.6611 801.9026,-524.866 803.7127,-531.6279"/>
</g>
<!-- league__uri_parser -->
<g id="node23" class="node">
<title>league__uri_parser</title>
<g id="a_node23"><a xlink:href="https://packagist.org/packages/league/uri-parser" xlink:title="uri&#45;parser">
<ellipse fill="none" stroke="#bcf2f6" cx="1036.7961" cy="-498.3479" rx="44.4578" ry="18"/>
<text text-anchor="middle" x="1036.7961" y="-494.1479" font-family="Times,serif" font-size="14.00" fill="#000000">uri&#45;parser</text>
</a>
</g>
</g>
<!-- league__uri&#45;&gt;league__uri_parser -->
<g id="edge46" class="edge">
<title>league__uri&#45;&gt;league__uri_parser</title>
<path fill="none" stroke="#ef36b1" d="M713.9546,-558.1932C769.4952,-555.6756 893.7882,-549.1237 935.1845,-539.3479 938.4656,-538.573 969.2806,-526.0802 996.1243,-515.0868"/>
<polygon fill="#ef36b1" stroke="#ef36b1" points="997.4775,-518.3148 1005.4019,-511.2825 994.8217,-511.8381 997.4775,-518.3148"/>
</g>
<!-- league__uri_schemes -->
<g id="node24" class="node">
<title>league__uri_schemes</title>
<g id="a_node24"><a xlink:href="https://packagist.org/packages/league/uri-schemes" xlink:title="uri&#45;schemes">
<ellipse fill="none" stroke="#8cd717" cx="862.2018" cy="-458.3479" rx="52.6693" ry="18"/>
<text text-anchor="middle" x="862.2018" y="-454.1479" font-family="Times,serif" font-size="14.00" fill="#000000">uri&#45;schemes</text>
</a>
</g>
</g>
<!-- league__uri&#45;&gt;league__uri_schemes -->
<g id="edge47" class="edge">
<title>league__uri&#45;&gt;league__uri_schemes</title>
<path fill="none" stroke="#ef36b1" d="M703.4656,-544.9887C723.0538,-528.8313 756.8519,-502.5955 789.2192,-485.3479 796.846,-481.2837 805.2183,-477.5648 813.4872,-474.2724"/>
<polygon fill="#ef36b1" stroke="#ef36b1" points="814.9994,-477.4416 823.0958,-470.6081 812.5051,-470.9011 814.9994,-477.4416"/>
</g>
<!-- league__uri&#45;&gt;psr__http_message -->
<g id="edge48" class="edge">
<title>league__uri&#45;&gt;psr__http_message</title>
<path fill="none" stroke="#ef36b1" d="M709.0338,-569.6455C798.3527,-608.9821 1132.6355,-739.6976 1309.041,-579.3479 1360.1138,-532.9235 1287.1348,-480.1888 1329.041,-425.3479 1332.1962,-421.2188 1336.0981,-417.7162 1340.4103,-414.7458"/>
<polygon fill="#ef36b1" stroke="#ef36b1" points="1342.2461,-417.7269 1349.1203,-409.6648 1338.719,-411.6805 1342.2461,-417.7269"/>
</g>
<!-- league__uri_components&#45;&gt;league__uri_hostname_parser -->
<g id="edge49" class="edge">
<title>league__uri_components&#45;&gt;league__uri_hostname_parser</title>
<path fill="none" stroke="#de64b9" d="M1102.579,-552.3479C1110.8982,-552.3479 1119.5258,-552.3479 1128.1547,-552.3479"/>
<polygon fill="#de64b9" stroke="#de64b9" points="1128.2664,-555.848 1138.2664,-552.3479 1128.2664,-548.848 1128.2664,-555.848"/>
</g>
<!-- psr__simple_cache -->
<g id="node28" class="node">
<title>psr__simple_cache</title>
<g id="a_node28"><a xlink:href="https://packagist.org/packages/psr/simple-cache" xlink:title="simple&#45;cache">
<ellipse fill="none" stroke="#01186e" cx="1393.8092" cy="-506.3479" rx="56.5115" ry="18"/>
<text text-anchor="middle" x="1393.8092" y="-502.1479" font-family="Times,serif" font-size="14.00" fill="#000000">simple&#45;cache</text>
</a>
</g>
</g>
<!-- league__uri_hostname_parser&#45;&gt;psr__simple_cache -->
<g id="edge50" class="edge">
<title>league__uri_hostname_parser&#45;&gt;psr__simple_cache</title>
<path fill="none" stroke="#13807b" d="M1271.9556,-538.5464C1293.5813,-532.832 1318.6395,-526.2106 1340.3885,-520.4637"/>
<polygon fill="#13807b" stroke="#13807b" points="1341.3502,-523.8298 1350.1242,-517.8912 1339.5619,-517.0621 1341.3502,-523.8298"/>
</g>
<!-- league__uri_manipulations&#45;&gt;league__uri_components -->
<g id="edge51" class="edge">
<title>league__uri_manipulations&#45;&gt;league__uri_components</title>
<path fill="none" stroke="#a0cfe9" d="M916.0105,-524.6756C935.1247,-529.0547 956.7636,-534.0122 976.3922,-538.5092"/>
<polygon fill="#a0cfe9" stroke="#a0cfe9" points="975.6178,-541.9224 986.1469,-540.744 977.1811,-535.0992 975.6178,-541.9224"/>
</g>
<!-- league__uri_manipulations&#45;&gt;league__uri_interfaces -->
<g id="edge52" class="edge">
<title>league__uri_manipulations&#45;&gt;league__uri_interfaces</title>
<path fill="none" stroke="#a0cfe9" d="M903.1971,-497.4205C913.6504,-493.5487 924.8518,-489.3428 935.1845,-485.3479 953.8977,-478.1128 974.4386,-469.8802 992.125,-462.7"/>
<polygon fill="#a0cfe9" stroke="#a0cfe9" points="993.6846,-465.844 1001.6273,-458.8323 991.0456,-459.3605 993.6846,-465.844"/>
</g>
<!-- league__uri_manipulations&#45;&gt;psr__http_message -->
<g id="edge53" class="edge">
<title>league__uri_manipulations&#45;&gt;psr__http_message</title>
<path fill="none" stroke="#a0cfe9" d="M912.8031,-499.1778C920.865,-495.5786 928.6791,-491.0434 935.1845,-485.3479 960.9133,-462.8221 942.292,-435.6401 971.1845,-417.3479 1028.7625,-380.8945 1224.9373,-387.3064 1328.5205,-393.5936"/>
<polygon fill="#a0cfe9" stroke="#a0cfe9" points="1328.3532,-397.0898 1338.5519,-394.2196 1328.7893,-390.1034 1328.3532,-397.0898"/>
</g>
<!-- league__uri_schemes&#45;&gt;league__uri_interfaces -->
<g id="edge54" class="edge">
<title>league__uri_schemes&#45;&gt;league__uri_interfaces</title>
<path fill="none" stroke="#8cd717" d="M913.6416,-454.2231C931.6323,-452.7805 952.0822,-451.1407 971.0777,-449.6176"/>
<polygon fill="#8cd717" stroke="#8cd717" points="971.4677,-453.0976 981.156,-448.8094 970.9082,-446.12 971.4677,-453.0976"/>
</g>
<!-- league__uri_schemes&#45;&gt;league__uri_parser -->
<g id="edge55" class="edge">
<title>league__uri_schemes&#45;&gt;league__uri_parser</title>
<path fill="none" stroke="#8cd717" d="M906.2594,-468.4416C931.141,-474.142 962.2925,-481.2789 987.9232,-487.151"/>
<polygon fill="#8cd717" stroke="#8cd717" points="987.2816,-490.5946 997.8107,-489.4162 988.8449,-483.7714 987.2816,-490.5946"/>
</g>
<!-- league__uri_schemes&#45;&gt;psr__http_message -->
<g id="edge56" class="edge">
<title>league__uri_schemes&#45;&gt;psr__http_message</title>
<path fill="none" stroke="#8cd717" d="M880.051,-441.1474C900.2676,-422.9722 935.1148,-395.4364 971.1845,-384.3479 1097.9935,-345.3645 1256.3682,-368.3948 1338.5538,-385.3125"/>
<polygon fill="#8cd717" stroke="#8cd717" points="1337.9254,-388.7569 1348.432,-387.3926 1339.3678,-381.9071 1337.9254,-388.7569"/>
</g>
<!-- paragonie__random_compat -->
<g id="node25" class="node">
<title>paragonie__random_compat</title>
<g id="a_node25"><a xlink:href="https://packagist.org/packages/paragonie/random_compat" xlink:title="random_compat">
<ellipse fill="none" stroke="#ea17ff" cx="338.4275" cy="-418.3479" rx="67.6442" ry="18"/>
<text text-anchor="middle" x="338.4275" y="-414.1479" font-family="Times,serif" font-size="14.00" fill="#000000">random_compat</text>
</a>
</g>
</g>
<!-- ramsey__uuid&#45;&gt;paragonie__random_compat -->
<g id="edge35" class="edge">
<title>ramsey__uuid&#45;&gt;paragonie__random_compat</title>
<path fill="none" stroke="#44619b" d="M228.6911,-418.3479C238.083,-418.3479 249.1426,-418.3479 260.5621,-418.3479"/>
<polygon fill="#44619b" stroke="#44619b" points="260.6574,-421.848 270.6573,-418.3479 260.6573,-414.848 260.6574,-421.848"/>
</g>
<!-- symfony__polyfill_ctype -->
<g id="node33" class="node">
<title>symfony__polyfill_ctype</title>
<g id="a_node33"><a xlink:href="https://packagist.org/packages/symfony/polyfill-ctype" xlink:title="polyfill&#45;ctype">
<ellipse fill="none" stroke="#96e3a7" cx="686.623" cy="-275.3479" rx="57.5151" ry="18"/>
<text text-anchor="middle" x="686.623" y="-271.1479" font-family="Times,serif" font-size="14.00" fill="#000000">polyfill&#45;ctype</text>
</a>
</g>
</g>
<!-- ramsey__uuid&#45;&gt;symfony__polyfill_ctype -->
<g id="edge36" class="edge">
<title>ramsey__uuid&#45;&gt;symfony__polyfill_ctype</title>
<path fill="none" stroke="#44619b" d="M214.3245,-402.1467C246.8417,-362.0011 338.1109,-258.4862 441.9996,-221.3479 501.439,-200.0994 522.7467,-206.2056 584.0268,-221.3479 609.2755,-227.5868 635.1733,-241.2844 654.6327,-253.3221"/>
<polygon fill="#44619b" stroke="#44619b" points="652.7786,-256.2907 663.0951,-258.7034 656.5348,-250.3839 652.7786,-256.2907"/>
</g>
<!-- symfony__filesystem&#45;&gt;symfony__polyfill_ctype -->
<g id="edge21" class="edge">
<title>symfony__filesystem&#45;&gt;symfony__polyfill_ctype</title>
<path fill="none" stroke="#1a4d29" d="M555.928,-295.6737C576.7454,-292.4362 602.133,-288.4879 624.9763,-284.9352"/>
<polygon fill="#1a4d29" stroke="#1a4d29" points="625.584,-288.3829 634.9273,-283.3877 624.5082,-281.466 625.584,-288.3829"/>
</g>
</g>
</svg>
