<?xml version="1.0" encoding="UTF-8" standalone="no"?>
<!DOCTYPE svg PUBLIC "-//W3C//DTD SVG 1.1//EN"
 "http://www.w3.org/Graphics/SVG/1.1/DTD/svg11.dtd">
<!-- Generated by graphviz version 2.40.1 (20161225.0304)
 -->
<!-- Title: packages Pages: 1 -->
<svg width="488pt" height="442pt"
 viewBox="0.00 0.00 488.36 442.00" xmlns="http://www.w3.org/2000/svg" xmlns:xlink="http://www.w3.org/1999/xlink">
<g id="graph0" class="graph" transform="scale(1 1) rotate(0) translate(4 438)">
<title>packages</title>
<polygon fill="#ffffff" stroke="transparent" points="-4,4 -4,-438 484.3646,-438 484.3646,4 -4,4"/>
<g id="clust1" class="cluster">
<title>cluster_innmind</title>
<g id="a_clust1"><a xlink:href="https://packagist.org/packages/innmind/" xlink:title="innmind">
<polygon fill="none" stroke="#000000" points="8,-90 8,-426 472.3646,-426 472.3646,-90 8,-90"/>
<text text-anchor="middle" x="240.1823" y="-410.8" font-family="Times,serif" font-size="14.00" fill="#000000">innmind</text>
</a>
</g>
</g>
<g id="clust2" class="cluster">
<title>cluster_baptouuuu</title>
<g id="a_clust2"><a xlink:href="https://packagist.org/packages/baptouuuu/" xlink:title="baptouuuu">
<polygon fill="none" stroke="#000000" points="255.7688,-8 255.7688,-82 332.253,-82 332.253,-8 255.7688,-8"/>
<text text-anchor="middle" x="294.0109" y="-66.8" font-family="Times,serif" font-size="14.00" fill="#000000">baptouuuu</text>
</a>
</g>
</g>
<!-- innmind__cli -->
<g id="node1" class="node">
<title>innmind__cli</title>
<g id="a_node1"><a xlink:href="https://packagist.org/packages/innmind/cli.json" xlink:title="cli">
<ellipse fill="none" stroke="#87dfa2" cx="437.3646" cy="-203" rx="27" ry="18"/>
<text text-anchor="middle" x="437.3646" y="-198.8" font-family="Times,serif" font-size="14.00" fill="#000000">cli</text>
</a>
</g>
</g>
<!-- innmind__warden -->
<g id="node2" class="node">
<title>innmind__warden</title>
<g id="a_node2"><a xlink:href="https://packagist.org/packages/innmind/warden.json" xlink:title="warden">
<ellipse fill="none" stroke="#e4820e" cx="294.0109" cy="-304" rx="36.2645" ry="18"/>
<text text-anchor="middle" x="294.0109" y="-299.8" font-family="Times,serif" font-size="14.00" fill="#000000">warden</text>
</a>
</g>
</g>
<!-- innmind__warden&#45;&gt;innmind__cli -->
<g id="edge1" class="edge">
<title>innmind__warden&#45;&gt;innmind__cli</title>
<path fill="none" stroke="#e4820e" d="M327.5305,-297.0816C342.7084,-292.8957 360.3472,-286.484 374.3646,-277 393.348,-264.1561 409.9241,-244.1063 421.3025,-228.1147"/>
<polygon fill="#e4820e" stroke="#e4820e" points="424.2925,-229.9435 427.0713,-219.7196 418.5233,-225.9791 424.2925,-229.9435"/>
</g>
<!-- innmind__tower -->
<g id="node3" class="node">
<title>innmind__tower</title>
<g id="a_node3"><a xlink:href="https://packagist.org/packages/innmind/tower.json" xlink:title="tower">
<ellipse fill="none" stroke="#722d5f" cx="294.0109" cy="-250" rx="30.4862" ry="18"/>
<text text-anchor="middle" x="294.0109" y="-245.8" font-family="Times,serif" font-size="14.00" fill="#000000">tower</text>
</a>
</g>
</g>
<!-- innmind__tower&#45;&gt;innmind__cli -->
<g id="edge2" class="edge">
<title>innmind__tower&#45;&gt;innmind__cli</title>
<path fill="none" stroke="#722d5f" d="M320.6387,-241.2698C343.9417,-233.6297 377.928,-222.4869 403.2246,-214.1931"/>
<polygon fill="#722d5f" stroke="#722d5f" points="404.3819,-217.4971 412.7938,-211.0558 402.201,-210.8455 404.3819,-217.4971"/>
</g>
<!-- innmind__library -->
<g id="node4" class="node">
<title>innmind__library</title>
<g id="a_node4"><a xlink:href="https://packagist.org/packages/innmind/library.json" xlink:title="library">
<ellipse fill="none" stroke="#90b91d" cx="96.8286" cy="-278" rx="33.8596" ry="18"/>
<text text-anchor="middle" x="96.8286" y="-273.8" font-family="Times,serif" font-size="14.00" fill="#000000">library</text>
</a>
</g>
</g>
<!-- innmind__library&#45;&gt;innmind__cli -->
<g id="edge4" class="edge">
<title>innmind__library&#45;&gt;innmind__cli</title>
<path fill="none" stroke="#90b91d" d="M127.7759,-270.3332C143.2684,-265.8388 162.0067,-259.3823 177.6573,-251 195.5256,-241.4299 194.7969,-230.4262 213.6573,-223 217.9338,-221.3161 337.3145,-211.2593 399.8889,-206.0797"/>
<polygon fill="#90b91d" stroke="#90b91d" points="400.4675,-209.5439 410.1453,-205.2323 399.891,-202.5677 400.4675,-209.5439"/>
</g>
<!-- innmind__installation_monitor -->
<g id="node5" class="node">
<title>innmind__installation_monitor</title>
<g id="a_node5"><a xlink:href="https://packagist.org/packages/innmind/installation-monitor.json" xlink:title="installation&#45;monitor">
<ellipse fill="none" stroke="#6c38e4" cx="294.0109" cy="-156" rx="80.2076" ry="18"/>
<text text-anchor="middle" x="294.0109" y="-151.8" font-family="Times,serif" font-size="14.00" fill="#000000">installation&#45;monitor</text>
</a>
</g>
</g>
<!-- innmind__library&#45;&gt;innmind__installation_monitor -->
<g id="edge3" class="edge">
<title>innmind__library&#45;&gt;innmind__installation_monitor</title>
<path fill="none" stroke="#90b91d" d="M128.6042,-271.6998C144.3079,-267.5539 162.9851,-260.9965 177.6573,-251 198.2554,-236.966 194.9859,-224.511 213.6573,-208 226.1148,-196.9839 241.1124,-186.6339 254.7603,-178.1128"/>
<polygon fill="#90b91d" stroke="#90b91d" points="256.7772,-180.9824 263.4938,-172.7886 253.1334,-175.0055 256.7772,-180.9824"/>
</g>
<!-- innmind__installation_monitor&#45;&gt;innmind__cli -->
<g id="edge5" class="edge">
<title>innmind__installation_monitor&#45;&gt;innmind__cli</title>
<path fill="none" stroke="#6c38e4" d="M339.3689,-170.8711C360.1847,-177.6958 384.4395,-185.648 403.6108,-191.9335"/>
<polygon fill="#6c38e4" stroke="#6c38e4" points="402.5349,-195.264 413.1277,-195.0537 404.7158,-188.6124 402.5349,-195.264"/>
</g>
<!-- innmind__infrastructure_nginx -->
<g id="node6" class="node">
<title>innmind__infrastructure_nginx</title>
<g id="a_node6"><a xlink:href="https://packagist.org/packages/innmind/infrastructure-nginx.json" xlink:title="infrastructure&#45;nginx">
<ellipse fill="none" stroke="#ca9176" cx="96.8286" cy="-224" rx="80.6576" ry="18"/>
<text text-anchor="middle" x="96.8286" y="-219.8" font-family="Times,serif" font-size="14.00" fill="#000000">infrastructure&#45;nginx</text>
</a>
</g>
</g>
<!-- innmind__infrastructure_nginx&#45;&gt;innmind__cli -->
<g id="edge6" class="edge">
<title>innmind__infrastructure_nginx&#45;&gt;innmind__cli</title>
<path fill="none" stroke="#ca9176" d="M163.1035,-213.5902C179.5804,-211.3704 197.229,-209.3043 213.6573,-208 279.0867,-202.8054 355.593,-202.2896 400.0558,-202.5394"/>
<polygon fill="#ca9176" stroke="#ca9176" points="400.0842,-206.0396 410.1093,-202.6122 400.1349,-199.0398 400.0842,-206.0396"/>
</g>
<!-- innmind__infrastructure_nginx&#45;&gt;innmind__installation_monitor -->
<g id="edge7" class="edge">
<title>innmind__infrastructure_nginx&#45;&gt;innmind__installation_monitor</title>
<path fill="none" stroke="#ca9176" d="M142.1875,-208.9937C153.7655,-205.1234 166.1823,-200.938 177.6573,-197 198.6354,-189.8007 221.6805,-181.717 241.6879,-174.6424"/>
<polygon fill="#ca9176" stroke="#ca9176" points="242.9851,-177.8961 251.2433,-171.2588 240.6485,-171.2976 242.9851,-177.8961"/>
</g>
<!-- innmind__infrastructure_neo4j -->
<g id="node7" class="node">
<title>innmind__infrastructure_neo4j</title>
<g id="a_node7"><a xlink:href="https://packagist.org/packages/innmind/infrastructure-neo4j.json" xlink:title="infrastructure&#45;neo4j">
<ellipse fill="none" stroke="#2b9897" cx="96.8286" cy="-170" rx="80.1645" ry="18"/>
<text text-anchor="middle" x="96.8286" y="-165.8" font-family="Times,serif" font-size="14.00" fill="#000000">infrastructure&#45;neo4j</text>
</a>
</g>
</g>
<!-- innmind__infrastructure_neo4j&#45;&gt;innmind__cli -->
<g id="edge8" class="edge">
<title>innmind__infrastructure_neo4j&#45;&gt;innmind__cli</title>
<path fill="none" stroke="#2b9897" d="M142.701,-155.1063C154.1556,-151.2694 166.3862,-147.0714 177.6573,-143 193.8035,-137.1676 196.7843,-132.1654 213.6573,-129 283.8581,-115.8302 309.5237,-99.0458 374.3646,-129 395.5595,-138.7913 412.2483,-159.6182 423.1097,-176.69"/>
<polygon fill="#2b9897" stroke="#2b9897" points="420.3766,-178.9356 428.536,-185.694 426.372,-175.3225 420.3766,-178.9356"/>
</g>
<!-- innmind__infrastructure_neo4j&#45;&gt;innmind__installation_monitor -->
<g id="edge9" class="edge">
<title>innmind__infrastructure_neo4j&#45;&gt;innmind__installation_monitor</title>
<path fill="none" stroke="#2b9897" d="M173.6291,-164.5471C184.5575,-163.7712 195.862,-162.9686 206.9683,-162.1801"/>
<polygon fill="#2b9897" stroke="#2b9897" points="207.3687,-165.6605 217.0957,-161.461 206.8729,-158.6781 207.3687,-165.6605"/>
</g>
<!-- innmind__infrastructure_amqp -->
<g id="node8" class="node">
<title>innmind__infrastructure_amqp</title>
<g id="a_node8"><a xlink:href="https://packagist.org/packages/innmind/infrastructure-amqp.json" xlink:title="infrastructure&#45;amqp">
<ellipse fill="none" stroke="#b37b32" cx="96.8286" cy="-116" rx="80.1645" ry="18"/>
<text text-anchor="middle" x="96.8286" y="-111.8" font-family="Times,serif" font-size="14.00" fill="#000000">infrastructure&#45;amqp</text>
</a>
</g>
</g>
<!-- innmind__infrastructure_amqp&#45;&gt;innmind__cli -->
<g id="edge10" class="edge">
<title>innmind__infrastructure_amqp&#45;&gt;innmind__cli</title>
<path fill="none" stroke="#b37b32" d="M165.7314,-106.6533C236.0356,-98.4502 339.6017,-90.4503 374.3646,-109 400.6354,-123.0183 417.8824,-153.3885 427.5819,-175.8335"/>
<polygon fill="#b37b32" stroke="#b37b32" points="424.3828,-177.258 431.3968,-185.1986 430.8655,-174.6171 424.3828,-177.258"/>
</g>
<!-- innmind__infrastructure_amqp&#45;&gt;innmind__installation_monitor -->
<g id="edge11" class="edge">
<title>innmind__infrastructure_amqp&#45;&gt;innmind__installation_monitor</title>
<path fill="none" stroke="#b37b32" d="M156.5249,-128.1099C177.8553,-132.4369 202.0785,-137.3508 224.1866,-141.8356"/>
<polygon fill="#b37b32" stroke="#b37b32" points="223.6813,-145.3043 234.1775,-143.8623 225.073,-138.444 223.6813,-145.3043"/>
</g>
<!-- innmind__crawler_app -->
<g id="node9" class="node">
<title>innmind__crawler_app</title>
<g id="a_node9"><a xlink:href="https://packagist.org/packages/innmind/crawler-app.json" xlink:title="crawler&#45;app">
<ellipse fill="none" stroke="#aca530" cx="96.8286" cy="-355" rx="52.3134" ry="18"/>
<text text-anchor="middle" x="96.8286" y="-350.8" font-family="Times,serif" font-size="14.00" fill="#000000">crawler&#45;app</text>
</a>
</g>
</g>
<!-- innmind__crawler_app&#45;&gt;innmind__cli -->
<g id="edge12" class="edge">
<title>innmind__crawler_app&#45;&gt;innmind__cli</title>
<path fill="none" stroke="#aca530" d="M126.4075,-370.0055C180.9669,-395.3393 298.7637,-438.8325 374.3646,-385 399.9493,-366.7821 421.9112,-277.2885 431.7891,-230.942"/>
<polygon fill="#aca530" stroke="#aca530" points="435.2573,-231.4551 433.8735,-220.951 428.4049,-230.0254 435.2573,-231.4551"/>
</g>
<!-- innmind__crawler_app&#45;&gt;innmind__installation_monitor -->
<g id="edge13" class="edge">
<title>innmind__crawler_app&#45;&gt;innmind__installation_monitor</title>
<path fill="none" stroke="#aca530" d="M129.2311,-340.735C145.4794,-332.2652 164.4554,-320.1972 177.6573,-305 203.7598,-274.9524 189.7369,-254.8122 213.6573,-223 226.2755,-206.2188 243.8815,-190.9319 259.3983,-179.2113"/>
<polygon fill="#aca530" stroke="#aca530" points="261.7648,-181.8162 267.7589,-173.0799 257.6251,-176.1714 261.7648,-181.8162"/>
</g>
<!-- innmind__genome -->
<g id="node10" class="node">
<title>innmind__genome</title>
<g id="a_node10"><a xlink:href="https://packagist.org/packages/innmind/genome.json" xlink:title="genome">
<ellipse fill="none" stroke="#36fd8b" cx="294.0109" cy="-358" rx="38.2024" ry="18"/>
<text text-anchor="middle" x="294.0109" y="-353.8" font-family="Times,serif" font-size="14.00" fill="#000000">genome</text>
</a>
</g>
</g>
<!-- innmind__genome&#45;&gt;innmind__cli -->
<g id="edge14" class="edge">
<title>innmind__genome&#45;&gt;innmind__cli</title>
<path fill="none" stroke="#36fd8b" d="M330.3121,-352.179C345.3308,-348.2613 362.0704,-341.7566 374.3646,-331 404.7457,-304.4187 421.978,-259.8011 430.4897,-230.8875"/>
<polygon fill="#36fd8b" stroke="#36fd8b" points="433.9298,-231.5804 433.2392,-221.0081 427.1861,-229.7035 433.9298,-231.5804"/>
</g>
<!-- baptouuuu__series -->
<g id="node11" class="node">
<title>baptouuuu__series</title>
<g id="a_node11"><a xlink:href="https://packagist.org/packages/baptouuuu/series.json" xlink:title="series">
<ellipse fill="none" stroke="#5c0ecf" cx="294.0109" cy="-34" rx="30.4862" ry="18"/>
<text text-anchor="middle" x="294.0109" y="-29.8" font-family="Times,serif" font-size="14.00" fill="#000000">series</text>
</a>
</g>
</g>
<!-- baptouuuu__series&#45;&gt;innmind__cli -->
<g id="edge15" class="edge">
<title>baptouuuu__series&#45;&gt;innmind__cli</title>
<path fill="none" stroke="#5c0ecf" d="M317.7394,-45.2426C335.0673,-54.3572 358.2515,-68.5361 374.3646,-86 398.9477,-112.6441 417.0887,-150.6624 427.4337,-176.0522"/>
<polygon fill="#5c0ecf" stroke="#5c0ecf" points="424.2117,-177.4223 431.1381,-185.4394 430.723,-174.8527 424.2117,-177.4223"/>
</g>
</g>
</svg>
