<?xml version="1.0" encoding="UTF-8" standalone="no"?>
<!DOCTYPE svg PUBLIC "-//W3C//DTD SVG 1.1//EN"
 "http://www.w3.org/Graphics/SVG/1.1/DTD/svg11.dtd">
<!-- Generated by graphviz version 2.40.1 (20161225.0304)
 -->
<!-- Title: packages Pages: 1 -->
<svg width="978pt" height="666pt"
 viewBox="0.00 0.00 978.19 666.00" xmlns="http://www.w3.org/2000/svg" xmlns:xlink="http://www.w3.org/1999/xlink">
<g id="graph0" class="graph" transform="scale(1 1) rotate(0) translate(4 662)">
<title>packages</title>
<polygon fill="#ffffff" stroke="transparent" points="-4,4 -4,-662 974.1943,-662 974.1943,4 -4,4"/>
<g id="clust1" class="cluster">
<title>cluster_innmind</title>
<g id="a_clust1"><a xlink:href="https://packagist.org/packages/innmind/" xlink:title="innmind">
<polygon fill="none" stroke="#000000" points="8,-394 8,-650 425.2196,-650 425.2196,-394 8,-394"/>
<text text-anchor="middle" x="216.6098" y="-634.8" font-family="Times,serif" font-size="14.00" fill="#000000">innmind</text>
</a>
</g>
</g>
<g id="clust2" class="cluster">
<title>cluster_league</title>
<g id="a_clust2"><a xlink:href="https://packagist.org/packages/league/" xlink:title="league">
<polygon fill="none" stroke="#000000" points="315.6234,-144 315.6234,-386 962.1943,-386 962.1943,-144 315.6234,-144"/>
<text text-anchor="middle" x="638.9089" y="-370.8" font-family="Times,serif" font-size="14.00" fill="#000000">league</text>
</a>
</g>
</g>
<g id="clust3" class="cluster">
<title>cluster_psr</title>
<g id="a_clust3"><a xlink:href="https://packagist.org/packages/psr/" xlink:title="psr">
<polygon fill="none" stroke="#000000" points="821.867,-8 821.867,-136 951.4034,-136 951.4034,-8 821.867,-8"/>
<text text-anchor="middle" x="886.6352" y="-120.8" font-family="Times,serif" font-size="14.00" fill="#000000">psr</text>
</a>
</g>
</g>
<!-- innmind__cli -->
<g id="node1" class="node">
<title>innmind__cli</title>
<g id="a_node1"><a xlink:href="https://packagist.org/packages/innmind/cli.json" xlink:title="cli">
<ellipse fill="none" stroke="#87dfa2" cx="43" cy="-494" rx="27" ry="18"/>
<text text-anchor="middle" x="43" y="-489.8" font-family="Times,serif" font-size="14.00" fill="#000000">cli</text>
</a>
</g>
</g>
<!-- innmind__stream -->
<g id="node2" class="node">
<title>innmind__stream</title>
<g id="a_node2"><a xlink:href="https://packagist.org/packages/innmind/stream.json" xlink:title="stream">
<ellipse fill="none" stroke="#5eb3ec" cx="177.0136" cy="-494" rx="33.8596" ry="18"/>
<text text-anchor="middle" x="177.0136" y="-489.8" font-family="Times,serif" font-size="14.00" fill="#000000">stream</text>
</a>
</g>
</g>
<!-- innmind__cli&#45;&gt;innmind__stream -->
<g id="edge1" class="edge">
<title>innmind__cli&#45;&gt;innmind__stream</title>
<path fill="none" stroke="#87dfa2" d="M70.1197,-494C88.1779,-494 112.3131,-494 133.0802,-494"/>
<polygon fill="#87dfa2" stroke="#87dfa2" points="133.2721,-497.5001 143.272,-494 133.272,-490.5001 133.2721,-497.5001"/>
</g>
<!-- innmind__immutable -->
<g id="node3" class="node">
<title>innmind__immutable</title>
<g id="a_node3"><a xlink:href="https://packagist.org/packages/innmind/immutable.json" xlink:title="immutable">
<ellipse fill="none" stroke="#a7e599" cx="350.6234" cy="-457" rx="47.8582" ry="18"/>
<text text-anchor="middle" x="350.6234" y="-452.8" font-family="Times,serif" font-size="14.00" fill="#000000">immutable</text>
</a>
</g>
</g>
<!-- innmind__cli&#45;&gt;innmind__immutable -->
<g id="edge2" class="edge">
<title>innmind__cli&#45;&gt;innmind__immutable</title>
<path fill="none" stroke="#87dfa2" d="M64.2113,-482.6082C76.133,-476.8021 91.4933,-470.2878 106,-467 168.6952,-452.7908 242.6926,-451.8806 292.755,-453.515"/>
<polygon fill="#87dfa2" stroke="#87dfa2" points="292.9386,-457.0242 303.0618,-453.8985 293.1989,-450.029 292.9386,-457.0242"/>
</g>
<!-- innmind__url -->
<g id="node5" class="node">
<title>innmind__url</title>
<g id="a_node5"><a xlink:href="https://packagist.org/packages/innmind/url.json" xlink:title="url">
<ellipse fill="none" stroke="#085cd3" cx="177.0136" cy="-420" rx="27" ry="18"/>
<text text-anchor="middle" x="177.0136" y="-415.8" font-family="Times,serif" font-size="14.00" fill="#000000">url</text>
</a>
</g>
</g>
<!-- innmind__cli&#45;&gt;innmind__url -->
<g id="edge3" class="edge">
<title>innmind__cli&#45;&gt;innmind__url</title>
<path fill="none" stroke="#87dfa2" d="M61.2411,-480.6747C73.5572,-471.9723 90.36,-460.66 106,-452 118.2285,-445.229 132.1597,-438.7087 144.4248,-433.3407"/>
<polygon fill="#87dfa2" stroke="#87dfa2" points="146.0306,-436.4603 153.8396,-429.2999 143.2698,-430.0277 146.0306,-436.4603"/>
</g>
<!-- innmind__operating_system -->
<g id="node6" class="node">
<title>innmind__operating_system</title>
<g id="a_node6"><a xlink:href="https://packagist.org/packages/innmind/operating-system.json" xlink:title="operating&#45;system">
<ellipse fill="none" stroke="#bb6188" cx="177.0136" cy="-602" rx="71.0272" ry="18"/>
<text text-anchor="middle" x="177.0136" y="-597.8" font-family="Times,serif" font-size="14.00" fill="#000000">operating&#45;system</text>
</a>
</g>
</g>
<!-- innmind__cli&#45;&gt;innmind__operating_system -->
<g id="edge4" class="edge">
<title>innmind__cli&#45;&gt;innmind__operating_system</title>
<path fill="none" stroke="#87dfa2" d="M52.4582,-511.1357C63.2577,-529.275 82.505,-557.6329 106,-575 110.5078,-578.3321 115.4761,-581.302 120.6278,-583.9381"/>
<polygon fill="#87dfa2" stroke="#87dfa2" points="119.4969,-587.2726 130.0389,-588.3288 122.4564,-580.929 119.4969,-587.2726"/>
</g>
<!-- innmind__time_warp -->
<g id="node7" class="node">
<title>innmind__time_warp</title>
<g id="a_node7"><a xlink:href="https://packagist.org/packages/innmind/time-warp.json" xlink:title="time&#45;warp">
<ellipse fill="none" stroke="#e567f2" cx="177.0136" cy="-548" rx="46.3959" ry="18"/>
<text text-anchor="middle" x="177.0136" y="-543.8" font-family="Times,serif" font-size="14.00" fill="#000000">time&#45;warp</text>
</a>
</g>
</g>
<!-- innmind__cli&#45;&gt;innmind__time_warp -->
<g id="edge5" class="edge">
<title>innmind__cli&#45;&gt;innmind__time_warp</title>
<path fill="none" stroke="#87dfa2" d="M65.6499,-503.9769C77.6013,-509.1727 92.5403,-515.5598 106,-521 114.9852,-524.6317 124.6626,-528.4029 133.8947,-531.9344"/>
<polygon fill="#87dfa2" stroke="#87dfa2" points="132.7156,-535.2304 143.3067,-535.5119 135.2027,-528.6872 132.7156,-535.2304"/>
</g>
<!-- innmind__stream&#45;&gt;innmind__immutable -->
<g id="edge6" class="edge">
<title>innmind__stream&#45;&gt;innmind__immutable</title>
<path fill="none" stroke="#5eb3ec" d="M208.453,-487.2996C233.5392,-481.9532 269.2133,-474.3502 298.5499,-468.098"/>
<polygon fill="#5eb3ec" stroke="#5eb3ec" points="299.5837,-471.4563 308.6345,-465.9487 298.1246,-464.6101 299.5837,-471.4563"/>
</g>
<!-- innmind__time_continuum -->
<g id="node4" class="node">
<title>innmind__time_continuum</title>
<g id="a_node4"><a xlink:href="https://packagist.org/packages/innmind/time-continuum.json" xlink:title="time&#45;continuum">
<ellipse fill="none" stroke="#dfbeb0" cx="350.6234" cy="-548" rx="66.6925" ry="18"/>
<text text-anchor="middle" x="350.6234" y="-543.8" font-family="Times,serif" font-size="14.00" fill="#000000">time&#45;continuum</text>
</a>
</g>
</g>
<!-- innmind__stream&#45;&gt;innmind__time_continuum -->
<g id="edge7" class="edge">
<title>innmind__stream&#45;&gt;innmind__time_continuum</title>
<path fill="none" stroke="#5eb3ec" d="M206.4641,-503.1604C231.1483,-510.8382 267.0323,-521.9996 296.8228,-531.2657"/>
<polygon fill="#5eb3ec" stroke="#5eb3ec" points="296.0788,-534.6997 306.6671,-534.3277 298.1579,-528.0155 296.0788,-534.6997"/>
</g>
<!-- innmind__url&#45;&gt;innmind__immutable -->
<g id="edge8" class="edge">
<title>innmind__url&#45;&gt;innmind__immutable</title>
<path fill="none" stroke="#085cd3" d="M203.0047,-425.5393C228.2698,-430.9238 267.3474,-439.2521 298.9509,-445.9875"/>
<polygon fill="#085cd3" stroke="#085cd3" points="298.4123,-449.4512 308.9222,-448.1126 299.8714,-442.605 298.4123,-449.4512"/>
</g>
<!-- league__uri -->
<g id="node8" class="node">
<title>league__uri</title>
<g id="a_node8"><a xlink:href="https://packagist.org/packages/league/uri.json" xlink:title="uri">
<ellipse fill="none" stroke="#ef36b1" cx="350.6234" cy="-279" rx="27" ry="18"/>
<text text-anchor="middle" x="350.6234" y="-274.8" font-family="Times,serif" font-size="14.00" fill="#000000">uri</text>
</a>
</g>
</g>
<!-- innmind__url&#45;&gt;league__uri -->
<g id="edge9" class="edge">
<title>innmind__url&#45;&gt;league__uri</title>
<path fill="none" stroke="#085cd3" d="M194.2947,-405.9649C225.1024,-380.9439 289.6274,-328.5389 325.3962,-299.4887"/>
<polygon fill="#085cd3" stroke="#085cd3" points="327.8563,-301.9996 333.4122,-292.9783 323.4432,-296.5659 327.8563,-301.9996"/>
</g>
<!-- innmind__operating_system&#45;&gt;innmind__time_continuum -->
<g id="edge10" class="edge">
<title>innmind__operating_system&#45;&gt;innmind__time_continuum</title>
<path fill="none" stroke="#bb6188" d="M222.1743,-587.9531C245.1329,-580.812 273.185,-572.0866 297.2105,-564.6137"/>
<polygon fill="#bb6188" stroke="#bb6188" points="298.3787,-567.9158 306.8879,-561.6036 296.2996,-561.2317 298.3787,-567.9158"/>
</g>
<!-- innmind__time_warp&#45;&gt;innmind__time_continuum -->
<g id="edge11" class="edge">
<title>innmind__time_warp&#45;&gt;innmind__time_continuum</title>
<path fill="none" stroke="#e567f2" d="M223.5378,-548C238.8424,-548 256.2934,-548 273.2578,-548"/>
<polygon fill="#e567f2" stroke="#e567f2" points="273.7342,-551.5001 283.7341,-548 273.7341,-544.5001 273.7342,-551.5001"/>
</g>
<!-- league__uri_interfaces -->
<g id="node9" class="node">
<title>league__uri_interfaces</title>
<g id="a_node9"><a xlink:href="https://packagist.org/packages/league/uri-interfaces.json" xlink:title="uri&#45;interfaces">
<ellipse fill="none" stroke="#22ca7d" cx="886.6352" cy="-336" rx="57.4874" ry="18"/>
<text text-anchor="middle" x="886.6352" y="-331.8" font-family="Times,serif" font-size="14.00" fill="#000000">uri&#45;interfaces</text>
</a>
</g>
</g>
<!-- league__uri&#45;&gt;league__uri_interfaces -->
<g id="edge12" class="edge">
<title>league__uri&#45;&gt;league__uri_interfaces</title>
<path fill="none" stroke="#ef36b1" d="M369.1274,-292.5428C388.8303,-306.0602 421.4859,-325.9455 453.2196,-334 582.0008,-366.6864 739.323,-355.2343 824.549,-344.9815"/>
<polygon fill="#ef36b1" stroke="#ef36b1" points="825.084,-348.4421 834.5783,-343.7401 824.2241,-341.4951 825.084,-348.4421"/>
</g>
<!-- league__uri_components -->
<g id="node10" class="node">
<title>league__uri_components</title>
<g id="a_node10"><a xlink:href="https://packagist.org/packages/league/uri-components.json" xlink:title="uri&#45;components">
<ellipse fill="none" stroke="#de64b9" cx="717.4644" cy="-298" rx="65.7235" ry="18"/>
<text text-anchor="middle" x="717.4644" y="-293.8" font-family="Times,serif" font-size="14.00" fill="#000000">uri&#45;components</text>
</a>
</g>
</g>
<!-- league__uri&#45;&gt;league__uri_components -->
<g id="edge14" class="edge">
<title>league__uri&#45;&gt;league__uri_components</title>
<path fill="none" stroke="#ef36b1" d="M370.958,-291.2257C391.0476,-302.538 423.06,-318.5482 453.2196,-325 523.9018,-340.1204 544.1799,-334.36 615.8527,-325 632.0361,-322.8866 649.3105,-318.9557 664.9395,-314.7347"/>
<polygon fill="#ef36b1" stroke="#ef36b1" points="666.2573,-318.0005 674.9443,-311.9353 664.3711,-311.2594 666.2573,-318.0005"/>
</g>
<!-- league__uri_hostname_parser -->
<g id="node12" class="node">
<title>league__uri_hostname_parser</title>
<g id="a_node12"><a xlink:href="https://packagist.org/packages/league/uri-hostname-parser.json" xlink:title="uri&#45;hostname&#45;parser">
<ellipse fill="none" stroke="#13807b" cx="534.5362" cy="-170" rx="81.1336" ry="18"/>
<text text-anchor="middle" x="534.5362" y="-165.8" font-family="Times,serif" font-size="14.00" fill="#000000">uri&#45;hostname&#45;parser</text>
</a>
</g>
</g>
<!-- league__uri&#45;&gt;league__uri_hostname_parser -->
<g id="edge15" class="edge">
<title>league__uri&#45;&gt;league__uri_hostname_parser</title>
<path fill="none" stroke="#ef36b1" d="M365.7115,-264.0364C384.6882,-245.9422 418.9536,-215.6055 453.2196,-197 459.6006,-193.5353 466.5047,-190.4102 473.5003,-187.6211"/>
<polygon fill="#ef36b1" stroke="#ef36b1" points="474.929,-190.8232 483.056,-184.0259 472.464,-184.2716 474.929,-190.8232"/>
</g>
<!-- league__uri_manipulations -->
<g id="node13" class="node">
<title>league__uri_manipulations</title>
<g id="a_node13"><a xlink:href="https://packagist.org/packages/league/uri-manipulations.json" xlink:title="uri&#45;manipulations">
<ellipse fill="none" stroke="#a0cfe9" cx="534.5362" cy="-298" rx="72.9653" ry="18"/>
<text text-anchor="middle" x="534.5362" y="-293.8" font-family="Times,serif" font-size="14.00" fill="#000000">uri&#45;manipulations</text>
</a>
</g>
</g>
<!-- league__uri&#45;&gt;league__uri_manipulations -->
<g id="edge16" class="edge">
<title>league__uri&#45;&gt;league__uri_manipulations</title>
<path fill="none" stroke="#ef36b1" d="M377.3659,-281.7628C398.217,-283.9169 428.2847,-287.0232 456.5494,-289.9432"/>
<polygon fill="#ef36b1" stroke="#ef36b1" points="456.554,-293.4622 466.8608,-291.0085 457.2734,-286.4993 456.554,-293.4622"/>
</g>
<!-- league__uri_parser -->
<g id="node14" class="node">
<title>league__uri_parser</title>
<g id="a_node14"><a xlink:href="https://packagist.org/packages/league/uri-parser.json" xlink:title="uri&#45;parser">
<ellipse fill="none" stroke="#bcf2f6" cx="717.4644" cy="-234" rx="44.4578" ry="18"/>
<text text-anchor="middle" x="717.4644" y="-229.8" font-family="Times,serif" font-size="14.00" fill="#000000">uri&#45;parser</text>
</a>
</g>
</g>
<!-- league__uri&#45;&gt;league__uri_parser -->
<g id="edge17" class="edge">
<title>league__uri&#45;&gt;league__uri_parser</title>
<path fill="none" stroke="#ef36b1" d="M377.4173,-276.7124C425.3533,-272.4993 528.9132,-262.8506 615.8527,-251 632.2804,-248.7608 650.1338,-245.9143 666.2265,-243.1939"/>
<polygon fill="#ef36b1" stroke="#ef36b1" points="667.2491,-246.5698 676.5148,-241.432 666.0675,-239.6702 667.2491,-246.5698"/>
</g>
<!-- league__uri_schemes -->
<g id="node15" class="node">
<title>league__uri_schemes</title>
<g id="a_node15"><a xlink:href="https://packagist.org/packages/league/uri-schemes.json" xlink:title="uri&#45;schemes">
<ellipse fill="none" stroke="#8cd717" cx="534.5362" cy="-224" rx="52.6693" ry="18"/>
<text text-anchor="middle" x="534.5362" y="-219.8" font-family="Times,serif" font-size="14.00" fill="#000000">uri&#45;schemes</text>
</a>
</g>
</g>
<!-- league__uri&#45;&gt;league__uri_schemes -->
<g id="edge18" class="edge">
<title>league__uri&#45;&gt;league__uri_schemes</title>
<path fill="none" stroke="#ef36b1" d="M375.4267,-271.5825C403.3886,-263.2203 449.5653,-249.4109 484.99,-238.817"/>
<polygon fill="#ef36b1" stroke="#ef36b1" points="486.0944,-242.14 494.6723,-235.9215 484.0887,-235.4335 486.0944,-242.14"/>
</g>
<!-- psr__http_message -->
<g id="node16" class="node">
<title>psr__http_message</title>
<g id="a_node16"><a xlink:href="https://packagist.org/packages/psr/http-message.json" xlink:title="http&#45;message">
<ellipse fill="none" stroke="#8da3f1" cx="886.6352" cy="-88" rx="56.5373" ry="18"/>
<text text-anchor="middle" x="886.6352" y="-83.8" font-family="Times,serif" font-size="14.00" fill="#000000">http&#45;message</text>
</a>
</g>
</g>
<!-- league__uri&#45;&gt;psr__http_message -->
<g id="edge13" class="edge">
<title>league__uri&#45;&gt;psr__http_message</title>
<path fill="none" stroke="#ef36b1" d="M358.3826,-261.3334C372.5103,-231.4618 405.4484,-171.4538 453.2196,-143 569.3411,-73.835 733.8018,-74.3093 823.0438,-80.9865"/>
<polygon fill="#ef36b1" stroke="#ef36b1" points="823.0355,-84.4969 833.2826,-81.8048 823.5933,-77.5191 823.0355,-84.4969"/>
</g>
<!-- league__uri_components&#45;&gt;league__uri_interfaces -->
<g id="edge19" class="edge">
<title>league__uri_components&#45;&gt;league__uri_interfaces</title>
<path fill="none" stroke="#de64b9" d="M768.6803,-309.5044C788.0643,-313.8585 810.2328,-318.8381 830.0799,-323.2963"/>
<polygon fill="#de64b9" stroke="#de64b9" points="829.3921,-326.7289 839.916,-325.5057 830.9263,-319.8991 829.3921,-326.7289"/>
</g>
<!-- league__uri_query_parser -->
<g id="node11" class="node">
<title>league__uri_query_parser</title>
<g id="a_node11"><a xlink:href="https://packagist.org/packages/league/uri-query-parser.json" xlink:title="uri&#45;query&#45;parser">
<ellipse fill="none" stroke="#1e8c91" cx="886.6352" cy="-282" rx="67.6183" ry="18"/>
<text text-anchor="middle" x="886.6352" y="-277.8" font-family="Times,serif" font-size="14.00" fill="#000000">uri&#45;query&#45;parser</text>
</a>
</g>
</g>
<!-- league__uri_components&#45;&gt;league__uri_query_parser -->
<g id="edge21" class="edge">
<title>league__uri_components&#45;&gt;league__uri_query_parser</title>
<path fill="none" stroke="#de64b9" d="M779.4968,-292.133C790.3265,-291.1088 801.6882,-290.0342 812.7986,-288.9834"/>
<polygon fill="#de64b9" stroke="#de64b9" points="813.2828,-292.4533 822.9087,-288.0272 812.6236,-285.4844 813.2828,-292.4533"/>
</g>
<!-- league__uri_components&#45;&gt;psr__http_message -->
<g id="edge20" class="edge">
<title>league__uri_components&#45;&gt;psr__http_message</title>
<path fill="none" stroke="#de64b9" d="M755.1928,-283.1105C765.4493,-277.5061 775.7374,-270.2014 783.0761,-261 818.0609,-217.1353 787.3031,-186.2442 819.0761,-140 827.1578,-128.2374 838.7358,-117.9586 850.0298,-109.7145"/>
<polygon fill="#de64b9" stroke="#de64b9" points="852.3194,-112.3863 858.5484,-103.816 848.3345,-106.6313 852.3194,-112.3863"/>
</g>
<!-- psr__simple_cache -->
<g id="node17" class="node">
<title>psr__simple_cache</title>
<g id="a_node17"><a xlink:href="https://packagist.org/packages/psr/simple-cache.json" xlink:title="simple&#45;cache">
<ellipse fill="none" stroke="#01186e" cx="886.6352" cy="-34" rx="56.5115" ry="18"/>
<text text-anchor="middle" x="886.6352" y="-29.8" font-family="Times,serif" font-size="14.00" fill="#000000">simple&#45;cache</text>
</a>
</g>
</g>
<!-- league__uri_hostname_parser&#45;&gt;psr__simple_cache -->
<g id="edge22" class="edge">
<title>league__uri_hostname_parser&#45;&gt;psr__simple_cache</title>
<path fill="none" stroke="#13807b" d="M575.2704,-154.2662C641.4874,-128.6896 772.0175,-78.2717 841.1655,-51.5629"/>
<polygon fill="#13807b" stroke="#13807b" points="842.4349,-54.8247 850.5021,-47.9566 839.9126,-48.2949 842.4349,-54.8247"/>
</g>
<!-- league__uri_manipulations&#45;&gt;league__uri_interfaces -->
<g id="edge25" class="edge">
<title>league__uri_manipulations&#45;&gt;league__uri_interfaces</title>
<path fill="none" stroke="#a0cfe9" d="M583.5479,-311.3465C604.4395,-316.4956 629.1803,-321.8855 651.8527,-325 707.7815,-332.6828 771.8299,-335.2743 818.8874,-336.0336"/>
<polygon fill="#a0cfe9" stroke="#a0cfe9" points="818.9143,-339.5342 828.9616,-336.1724 819.0109,-332.5348 818.9143,-339.5342"/>
</g>
<!-- league__uri_manipulations&#45;&gt;league__uri_components -->
<g id="edge24" class="edge">
<title>league__uri_manipulations&#45;&gt;league__uri_components</title>
<path fill="none" stroke="#a0cfe9" d="M607.6229,-298C618.747,-298 630.2494,-298 641.4347,-298"/>
<polygon fill="#a0cfe9" stroke="#a0cfe9" points="641.5978,-301.5001 651.5978,-298 641.5978,-294.5001 641.5978,-301.5001"/>
</g>
<!-- league__uri_manipulations&#45;&gt;psr__http_message -->
<g id="edge23" class="edge">
<title>league__uri_manipulations&#45;&gt;psr__http_message</title>
<path fill="none" stroke="#a0cfe9" d="M568.3651,-281.9858C583.7054,-273.8637 601.5659,-263.1457 615.8527,-251 635.1034,-234.6344 631.3064,-221.7061 651.8527,-207 702.4764,-170.7659 727.7385,-186.5206 783.0761,-158 809.2378,-144.5164 836.7455,-125.6726 856.8302,-110.9325"/>
<polygon fill="#a0cfe9" stroke="#a0cfe9" points="859.018,-113.6674 864.9579,-104.8942 854.8434,-108.0484 859.018,-113.6674"/>
</g>
<!-- league__uri_schemes&#45;&gt;league__uri_parser -->
<g id="edge27" class="edge">
<title>league__uri_schemes&#45;&gt;league__uri_parser</title>
<path fill="none" stroke="#8cd717" d="M586.9561,-226.8656C610.7899,-228.1685 638.9781,-229.7094 663.0474,-231.0252"/>
<polygon fill="#8cd717" stroke="#8cd717" points="662.9098,-234.5228 673.0859,-231.574 663.2919,-227.5333 662.9098,-234.5228"/>
</g>
<!-- league__uri_schemes&#45;&gt;psr__http_message -->
<g id="edge26" class="edge">
<title>league__uri_schemes&#45;&gt;psr__http_message</title>
<path fill="none" stroke="#8cd717" d="M576.4773,-212.7664C589.4388,-208.5893 603.5378,-203.3026 615.8527,-197 633.422,-188.0083 634.3707,-180.1602 651.8527,-171 710.966,-140.0259 784.1559,-116.2274 832.953,-102.213"/>
<polygon fill="#8cd717" stroke="#8cd717" points="834.0118,-105.5509 842.6785,-99.4567 832.103,-98.8161 834.0118,-105.5509"/>
</g>
</g>
</svg>
