<?xml version="1.0" encoding="UTF-8" standalone="no"?>
<!DOCTYPE svg PUBLIC "-//W3C//DTD SVG 1.1//EN"
 "http://www.w3.org/Graphics/SVG/1.1/DTD/svg11.dtd">
<!-- Generated by graphviz version 2.40.1 (20161225.0304)
 -->
<!-- Title: packages Pages: 1 -->
<svg width="1580pt" height="401pt"
 viewBox="0.00 0.00 1580.00 401.00" xmlns="http://www.w3.org/2000/svg" xmlns:xlink="http://www.w3.org/1999/xlink">
<g id="graph0" class="graph" transform="scale(1 1) rotate(0) translate(4 397)">
<title>packages</title>
<polygon fill="#ffffff" stroke="transparent" points="-4,4 -4,-397 1576,-397 1576,4 -4,4"/>
<g id="clust1" class="cluster">
<title>cluster_innmind</title>
<g id="a_clust1"><a xlink:href="https://packagist.org/packages/innmind/" xlink:title="innmind">
<polygon fill="none" stroke="#000000" points="8,-8 8,-385 1308,-385 1308,-8 8,-8"/>
<text text-anchor="middle" x="658" y="-369.8" font-family="Times,serif" font-size="14.00" fill="#000000">innmind</text>
</a>
</g>
</g>
<g id="clust2" class="cluster">
<title>cluster_baptouuuu</title>
<g id="a_clust2"><a xlink:href="https://packagist.org/packages/baptouuuu/" xlink:title="baptouuuu">
<polygon fill="none" stroke="#000000" points="1316,-94 1316,-168 1564,-168 1564,-94 1316,-94"/>
<text text-anchor="middle" x="1440" y="-152.8" font-family="Times,serif" font-size="14.00" fill="#000000">baptouuuu</text>
</a>
</g>
</g>
<!-- innmind__cli -->
<g id="node1" class="node">
<title>innmind__cli</title>
<g id="a_node1"><a xlink:href="https://packagist.org/packages/innmind/cli#1.7.0" xlink:title="cli@1.7.0">
<ellipse fill="none" stroke="#87dfa2" cx="724" cy="-34" rx="44.5548" ry="18"/>
<text text-anchor="middle" x="724" y="-29.8" font-family="Times,serif" font-size="14.00" fill="#000000">cli@1.7.0</text>
</a>
</g>
</g>
<!-- innmind__installation_monitor -->
<g id="node2" class="node">
<title>innmind__installation_monitor</title>
<g id="a_node2"><a xlink:href="https://packagist.org/packages/innmind/installation-monitor#2.1.0" xlink:title="installation&#45;monitor@2.1.0">
<ellipse fill="none" stroke="#6c38e4" cx="522" cy="-213" rx="106.3694" ry="18"/>
<text text-anchor="middle" x="522" y="-208.8" font-family="Times,serif" font-size="14.00" fill="#000000">installation&#45;monitor@2.1.0</text>
</a>
</g>
</g>
<!-- innmind__installation_monitor&#45;&gt;innmind__cli -->
<g id="edge1" class="edge">
<title>innmind__installation_monitor&#45;&gt;innmind__cli</title>
<path fill="none" stroke="#6c38e4" d="M536.0388,-194.9254C559.2585,-165.8865 608.1683,-108.2329 659,-70 667.3505,-63.7192 676.9241,-57.8089 686.1107,-52.6634"/>
<polygon fill="#6c38e4" stroke="#6c38e4" points="687.9841,-55.6291 695.1087,-47.7875 684.6491,-49.4746 687.9841,-55.6291"/>
<text text-anchor="middle" x="640.0347" y="-115.8" font-family="Times,serif" font-size="14.00" fill="#000000">^1.3</text>
</g>
<!-- innmind__library -->
<g id="node3" class="node">
<title>innmind__library</title>
<g id="a_node3"><a xlink:href="https://packagist.org/packages/innmind/library#1.2.0" xlink:title="library@1.2.0">
<ellipse fill="none" stroke="#90b91d" cx="710" cy="-337" rx="59.5204" ry="18"/>
<text text-anchor="middle" x="710" y="-332.8" font-family="Times,serif" font-size="14.00" fill="#000000">library@1.2.0</text>
</a>
</g>
</g>
<!-- innmind__library&#45;&gt;innmind__cli -->
<g id="edge3" class="edge">
<title>innmind__library&#45;&gt;innmind__cli</title>
<path fill="none" stroke="#90b91d" d="M688.347,-320.1608C676.416,-308.8642 664,-292.8259 664,-275 664,-275 664,-275 664,-120 664,-95.5937 680.4545,-73.1648 696.1298,-57.3355"/>
<polygon fill="#90b91d" stroke="#90b91d" points="698.8743,-59.554 703.6867,-50.1152 694.0386,-54.4928 698.8743,-59.554"/>
<text text-anchor="middle" x="676.0347" y="-208.8" font-family="Times,serif" font-size="14.00" fill="#000000">^1.3</text>
</g>
<!-- innmind__library&#45;&gt;innmind__installation_monitor -->
<g id="edge2" class="edge">
<title>innmind__library&#45;&gt;innmind__installation_monitor</title>
<path fill="none" stroke="#ff0000" stroke-width="2" d="M685.0351,-320.5338C652.2085,-298.8822 594.3486,-260.7193 557.1187,-236.1634"/>
<polygon fill="#ff0000" stroke="#ff0000" stroke-width="2" points="558.8609,-233.1197 548.586,-230.5355 555.0067,-238.9632 558.8609,-233.1197"/>
<text text-anchor="middle" x="637.0347" y="-270.8" font-family="Times,serif" font-size="14.00" fill="#000000">^1.1</text>
</g>
<!-- innmind__infrastructure_nginx -->
<g id="node4" class="node">
<title>innmind__infrastructure_nginx</title>
<g id="a_node4"><a xlink:href="https://packagist.org/packages/innmind/infrastructure-nginx#1.1.0" xlink:title="infrastructure&#45;nginx@1.1.0">
<ellipse fill="none" stroke="#ca9176" cx="894" cy="-337" rx="106.8193" ry="18"/>
<text text-anchor="middle" x="894" y="-332.8" font-family="Times,serif" font-size="14.00" fill="#000000">infrastructure&#45;nginx@1.1.0</text>
</a>
</g>
</g>
<!-- innmind__infrastructure_nginx&#45;&gt;innmind__cli -->
<g id="edge4" class="edge">
<title>innmind__infrastructure_nginx&#45;&gt;innmind__cli</title>
<path fill="none" stroke="#ca9176" d="M848.3031,-320.6317C810.1493,-304.3078 758.0819,-275.2322 732.9307,-231 702.5602,-177.589 710.3819,-102.2497 717.7735,-61.9749"/>
<polygon fill="#ca9176" stroke="#ca9176" points="721.2283,-62.5451 719.7172,-52.0586 714.359,-61.1986 721.2283,-62.5451"/>
<text text-anchor="middle" x="744.0347" y="-208.8" font-family="Times,serif" font-size="14.00" fill="#000000">^1.3</text>
</g>
<!-- innmind__infrastructure_nginx&#45;&gt;innmind__installation_monitor -->
<g id="edge5" class="edge">
<title>innmind__infrastructure_nginx&#45;&gt;innmind__installation_monitor</title>
<path fill="none" stroke="#ff0000" stroke-width="2" d="M824.3132,-323.2574C797.4021,-317.3161 766.5217,-309.7171 739,-301 722.3877,-295.7383 630.6899,-258.0513 571.9347,-233.7327"/>
<polygon fill="#ff0000" stroke="#ff0000" stroke-width="2" points="573.0251,-230.396 562.4469,-229.8034 570.3467,-236.8634 573.0251,-230.396"/>
<text text-anchor="middle" x="699.0347" y="-270.8" font-family="Times,serif" font-size="14.00" fill="#000000">^1.1</text>
</g>
<!-- innmind__infrastructure_neo4j -->
<g id="node5" class="node">
<title>innmind__infrastructure_neo4j</title>
<g id="a_node5"><a xlink:href="https://packagist.org/packages/innmind/infrastructure-neo4j#1.2.0" xlink:title="infrastructure&#45;neo4j@1.2.0">
<ellipse fill="none" stroke="#2b9897" cx="296" cy="-337" rx="106.3261" ry="18"/>
<text text-anchor="middle" x="296" y="-332.8" font-family="Times,serif" font-size="14.00" fill="#000000">infrastructure&#45;neo4j@1.2.0</text>
</a>
</g>
</g>
<!-- innmind__infrastructure_neo4j&#45;&gt;innmind__cli -->
<g id="edge6" class="edge">
<title>innmind__infrastructure_neo4j&#45;&gt;innmind__cli</title>
<path fill="none" stroke="#2b9897" d="M297.7181,-318.7683C303.0989,-272.7746 323.9769,-151.6018 398,-94 439.5399,-61.6753 588.167,-44.9108 669.6318,-37.9739"/>
<polygon fill="#2b9897" stroke="#2b9897" points="670.0265,-41.4533 679.7024,-37.1373 669.4469,-34.4773 670.0265,-41.4533"/>
<text text-anchor="middle" x="339.0347" y="-208.8" font-family="Times,serif" font-size="14.00" fill="#000000">^1.2</text>
</g>
<!-- innmind__infrastructure_neo4j&#45;&gt;innmind__installation_monitor -->
<g id="edge7" class="edge">
<title>innmind__infrastructure_neo4j&#45;&gt;innmind__installation_monitor</title>
<path fill="none" stroke="#ff0000" stroke-width="2" d="M327.4243,-319.7583C367.6218,-297.7031 437.309,-259.4676 481.4642,-235.2409"/>
<polygon fill="#ff0000" stroke="#ff0000" stroke-width="2" points="483.3956,-238.1734 490.4791,-230.2947 480.0284,-232.0365 483.3956,-238.1734"/>
<text text-anchor="middle" x="432.0347" y="-270.8" font-family="Times,serif" font-size="14.00" fill="#000000">^1.1</text>
</g>
<!-- innmind__infrastructure_amqp -->
<g id="node6" class="node">
<title>innmind__infrastructure_amqp</title>
<g id="a_node6"><a xlink:href="https://packagist.org/packages/innmind/infrastructure-amqp#1.3.0" xlink:title="infrastructure&#45;amqp@1.3.0">
<ellipse fill="none" stroke="#b37b32" cx="526" cy="-337" rx="106.3261" ry="18"/>
<text text-anchor="middle" x="526" y="-332.8" font-family="Times,serif" font-size="14.00" fill="#000000">infrastructure&#45;amqp@1.3.0</text>
</a>
</g>
</g>
<!-- innmind__infrastructure_amqp&#45;&gt;innmind__cli -->
<g id="edge8" class="edge">
<title>innmind__infrastructure_amqp&#45;&gt;innmind__cli</title>
<path fill="none" stroke="#b37b32" d="M503.2812,-319.1285C485.2125,-305.0256 459.2022,-284.9692 436,-268 412.7916,-251.0263 396.2331,-256.4908 382.9307,-231 375.5284,-216.8153 374.9805,-208.8851 382.9307,-195 442.3255,-91.266 590.4493,-53.607 670.5537,-40.5369"/>
<polygon fill="#b37b32" stroke="#b37b32" points="671.5762,-43.9198 680.9178,-38.9213 670.498,-37.0034 671.5762,-43.9198"/>
<text text-anchor="middle" x="394.0347" y="-208.8" font-family="Times,serif" font-size="14.00" fill="#000000">^1.2</text>
</g>
<!-- innmind__infrastructure_amqp&#45;&gt;innmind__installation_monitor -->
<g id="edge9" class="edge">
<title>innmind__infrastructure_amqp&#45;&gt;innmind__installation_monitor</title>
<path fill="none" stroke="#ff0000" stroke-width="2" d="M525.4184,-318.9693C524.7607,-298.5822 523.6815,-265.1268 522.9117,-241.2614"/>
<polygon fill="#ff0000" stroke="#ff0000" stroke-width="2" points="526.403,-240.9343 522.5823,-231.0524 519.4067,-241.1601 526.403,-240.9343"/>
<text text-anchor="middle" x="536.0347" y="-270.8" font-family="Times,serif" font-size="14.00" fill="#000000">^1.1</text>
</g>
<!-- innmind__crawler_app -->
<g id="node7" class="node">
<title>innmind__crawler_app</title>
<g id="a_node7"><a xlink:href="https://packagist.org/packages/innmind/crawler-app#1.1.0" xlink:title="crawler&#45;app@1.1.0">
<ellipse fill="none" stroke="#aca530" cx="94" cy="-337" rx="77.9747" ry="18"/>
<text text-anchor="middle" x="94" y="-332.8" font-family="Times,serif" font-size="14.00" fill="#000000">crawler&#45;app@1.1.0</text>
</a>
</g>
</g>
<!-- innmind__crawler_app&#45;&gt;innmind__cli -->
<g id="edge10" class="edge">
<title>innmind__crawler_app&#45;&gt;innmind__cli</title>
<path fill="none" stroke="#aca530" d="M154.0333,-325.299C199.434,-314.6723 254,-297.2683 254,-275 254,-275 254,-275 254,-120 254,-78.1453 546.1278,-48.8325 669.7659,-38.3007"/>
<polygon fill="#aca530" stroke="#aca530" points="670.1125,-41.784 679.7835,-37.4572 669.5251,-34.8087 670.1125,-41.784"/>
<text text-anchor="middle" x="266.0347" y="-208.8" font-family="Times,serif" font-size="14.00" fill="#000000">^1.0</text>
</g>
<!-- innmind__crawler_app&#45;&gt;innmind__installation_monitor -->
<g id="edge11" class="edge">
<title>innmind__crawler_app&#45;&gt;innmind__installation_monitor</title>
<path fill="none" stroke="#ff0000" stroke-width="2" d="M152.3273,-324.9694C191.382,-316.7805 239.1428,-306.4711 259,-301 332.4134,-280.7729 415.4978,-251.951 468.2838,-232.8741"/>
<polygon fill="#ff0000" stroke="#ff0000" stroke-width="2" points="469.5714,-236.1303 477.7783,-229.4297 467.1842,-229.5499 469.5714,-236.1303"/>
<text text-anchor="middle" x="376.0347" y="-270.8" font-family="Times,serif" font-size="14.00" fill="#000000">^1.1</text>
</g>
<!-- innmind__dependency_graph -->
<g id="node8" class="node">
<title>innmind__dependency_graph</title>
<g id="a_node8"><a xlink:href="https://packagist.org/packages/innmind/dependency-graph#1.2.0" xlink:title="dependency&#45;graph@1.2.0">
<ellipse fill="none" stroke="#a7837f" cx="117" cy="-213" rx="101.4985" ry="18"/>
<text text-anchor="middle" x="117" y="-208.8" font-family="Times,serif" font-size="14.00" fill="#000000">dependency&#45;graph@1.2.0</text>
</a>
</g>
</g>
<!-- innmind__dependency_graph&#45;&gt;innmind__cli -->
<g id="edge12" class="edge">
<title>innmind__dependency_graph&#45;&gt;innmind__cli</title>
<path fill="none" stroke="#a7837f" d="M127.0111,-194.9734C145.9653,-162.9096 190.4907,-96.8194 249,-70 286.3553,-52.8771 552.0159,-40.6425 668.9656,-36.0269"/>
<polygon fill="#a7837f" stroke="#a7837f" points="669.282,-39.5173 679.1379,-35.6299 669.0089,-32.5226 669.282,-39.5173"/>
<text text-anchor="middle" x="221.0347" y="-115.8" font-family="Times,serif" font-size="14.00" fill="#000000">^1.5</text>
</g>
<!-- innmind__debug -->
<g id="node9" class="node">
<title>innmind__debug</title>
<g id="a_node9"><a xlink:href="https://packagist.org/packages/innmind/debug#1.1.0" xlink:title="debug@1.1.0">
<ellipse fill="none" stroke="#1d447b" cx="1242" cy="-213" rx="57.5996" ry="18"/>
<text text-anchor="middle" x="1242" y="-208.8" font-family="Times,serif" font-size="14.00" fill="#000000">debug@1.1.0</text>
</a>
</g>
</g>
<!-- innmind__debug&#45;&gt;innmind__cli -->
<g id="edge13" class="edge">
<title>innmind__debug&#45;&gt;innmind__cli</title>
<path fill="none" stroke="#1d447b" d="M1224.7393,-195.5407C1197.3366,-168.9564 1141.0162,-118.8061 1083,-94 1028.9118,-70.8734 863.6134,-49.65 777.4734,-39.7937"/>
<polygon fill="#1d447b" stroke="#1d447b" points="777.7044,-36.2976 767.3738,-38.6487 776.9158,-43.253 777.7044,-36.2976"/>
<text text-anchor="middle" x="1204.0347" y="-115.8" font-family="Times,serif" font-size="14.00" fill="#000000">^1.5</text>
</g>
<!-- innmind__warden -->
<g id="node10" class="node">
<title>innmind__warden</title>
<g id="a_node10"><a xlink:href="https://packagist.org/packages/innmind/warden#1.2.0" xlink:title="warden@1.2.0">
<ellipse fill="none" stroke="#e4820e" cx="1104" cy="-213" rx="61.9258" ry="18"/>
<text text-anchor="middle" x="1104" y="-208.8" font-family="Times,serif" font-size="14.00" fill="#000000">warden@1.2.0</text>
</a>
</g>
</g>
<!-- innmind__warden&#45;&gt;innmind__cli -->
<g id="edge14" class="edge">
<title>innmind__warden&#45;&gt;innmind__cli</title>
<path fill="none" stroke="#e4820e" d="M1085.9255,-195.3439C1058.4072,-169.418 1003.3367,-121.1884 948,-94 892.4546,-66.7091 822.8493,-50.559 776.097,-42.0105"/>
<polygon fill="#e4820e" stroke="#e4820e" points="776.6474,-38.5536 766.1893,-40.2501 775.4228,-45.4456 776.6474,-38.5536"/>
<text text-anchor="middle" x="1067.0347" y="-115.8" font-family="Times,serif" font-size="14.00" fill="#000000">^1.4</text>
</g>
<!-- innmind__tower -->
<g id="node11" class="node">
<title>innmind__tower</title>
<g id="a_node11"><a xlink:href="https://packagist.org/packages/innmind/tower#1.0.0" xlink:title="tower@1.0.0">
<ellipse fill="none" stroke="#722d5f" cx="968" cy="-213" rx="56.1461" ry="18"/>
<text text-anchor="middle" x="968" y="-208.8" font-family="Times,serif" font-size="14.00" fill="#000000">tower@1.0.0</text>
</a>
</g>
</g>
<!-- innmind__tower&#45;&gt;innmind__cli -->
<g id="edge15" class="edge">
<title>innmind__tower&#45;&gt;innmind__cli</title>
<path fill="none" stroke="#722d5f" d="M950.1978,-195.6172C924.7779,-171.2834 876.0479,-126.4131 830,-94 808.1586,-78.6259 782.0658,-63.8166 761.2337,-52.7573"/>
<polygon fill="#722d5f" stroke="#722d5f" points="762.8434,-49.6494 752.3618,-48.1042 759.5921,-55.8485 762.8434,-49.6494"/>
<text text-anchor="middle" x="932.0347" y="-115.8" font-family="Times,serif" font-size="14.00" fill="#000000">^1.2</text>
</g>
<!-- innmind__genome -->
<g id="node12" class="node">
<title>innmind__genome</title>
<g id="a_node12"><a xlink:href="https://packagist.org/packages/innmind/genome#1.1.0" xlink:title="genome@1.1.0">
<ellipse fill="none" stroke="#36fd8b" cx="830" cy="-213" rx="63.8639" ry="18"/>
<text text-anchor="middle" x="830" y="-208.8" font-family="Times,serif" font-size="14.00" fill="#000000">genome@1.1.0</text>
</a>
</g>
</g>
<!-- innmind__genome&#45;&gt;innmind__cli -->
<g id="edge16" class="edge">
<title>innmind__genome&#45;&gt;innmind__cli</title>
<path fill="none" stroke="#36fd8b" d="M819.4488,-195.1824C800.7181,-163.5522 761.5741,-97.4506 739.6802,-60.4788"/>
<polygon fill="#36fd8b" stroke="#36fd8b" points="742.6156,-58.5666 734.5085,-51.7456 736.5924,-62.1335 742.6156,-58.5666"/>
<text text-anchor="middle" x="814.0347" y="-115.8" font-family="Times,serif" font-size="14.00" fill="#000000">^1.2</text>
</g>
<!-- baptouuuu__series -->
<g id="node13" class="node">
<title>baptouuuu__series</title>
<g id="a_node13"><a xlink:href="https://packagist.org/packages/baptouuuu/series#1.1.0" xlink:title="series@1.1.0">
<ellipse fill="none" stroke="#5c0ecf" cx="1380" cy="-120" rx="56.1461" ry="18"/>
<text text-anchor="middle" x="1380" y="-115.8" font-family="Times,serif" font-size="14.00" fill="#000000">series@1.1.0</text>
</a>
</g>
</g>
<!-- baptouuuu__series&#45;&gt;innmind__cli -->
<g id="edge17" class="edge">
<title>baptouuuu__series&#45;&gt;innmind__cli</title>
<path fill="none" stroke="#5c0ecf" d="M1346.1853,-105.5961C1335.4055,-101.405 1323.3326,-97.1205 1312,-94 1251.9798,-77.4732 1235.7604,-77.8239 1174,-70 1031.9974,-52.0109 863.5783,-41.3667 778.7066,-36.7431"/>
<polygon fill="#5c0ecf" stroke="#5c0ecf" points="778.7044,-33.2381 768.5309,-36.1959 778.3285,-40.228 778.7044,-33.2381"/>
<text text-anchor="middle" x="1281.0347" y="-72.8" font-family="Times,serif" font-size="14.00" fill="#000000">^1.2</text>
</g>
<!-- baptouuuu__hike -->
<g id="node14" class="node">
<title>baptouuuu__hike</title>
<g id="a_node14"><a xlink:href="https://packagist.org/packages/baptouuuu/hike#1.0.0" xlink:title="hike@1.0.0">
<ellipse fill="none" stroke="#396a04" cx="1505" cy="-120" rx="51.3271" ry="18"/>
<text text-anchor="middle" x="1505" y="-115.8" font-family="Times,serif" font-size="14.00" fill="#000000">hike@1.0.0</text>
</a>
</g>
</g>
<!-- baptouuuu__hike&#45;&gt;innmind__cli -->
<g id="edge18" class="edge">
<title>baptouuuu__hike&#45;&gt;innmind__cli</title>
<path fill="none" stroke="#396a04" d="M1475.0185,-105.2737C1465.5917,-101.1182 1455.0236,-96.9349 1445,-94 1381.0479,-75.275 1363.2214,-77.4314 1297,-70 1107.386,-48.7213 880.9549,-39.1361 778.788,-35.6544"/>
<polygon fill="#396a04" stroke="#396a04" points="778.8195,-32.1536 768.708,-35.3171 778.5853,-39.1497 778.8195,-32.1536"/>
<text text-anchor="middle" x="1417.0347" y="-72.8" font-family="Times,serif" font-size="14.00" fill="#000000">^1.2</text>
</g>
</g>
</svg>
